<svg id="_0237_couple_2" xmlns="http://www.w3.org/2000/svg" xmlns:xlink="http://www.w3.org/1999/xlink" viewBox="0 0 500 500" data-imageid="couple-2-27" imageName="Couple 2" class="illustrations_image" style="width: 171px;"><defs><style>.cls-1_couple-2-27{fill:none;}.cls-1_couple-2-27,.cls-2_couple-2-27,.cls-3_couple-2-27,.cls-4_couple-2-27,.cls-5_couple-2-27,.cls-6_couple-2-27,.cls-7_couple-2-27,.cls-8_couple-2-27,.cls-9_couple-2-27,.cls-10_couple-2-27,.cls-11_couple-2-27,.cls-12_couple-2-27,.cls-13_couple-2-27,.cls-14_couple-2-27,.cls-15_couple-2-27,.cls-16_couple-2-27,.cls-17_couple-2-27,.cls-18_couple-2-27,.cls-19_couple-2-27,.cls-20_couple-2-27,.cls-21_couple-2-27,.cls-22_couple-2-27,.cls-23_couple-2-27,.cls-24_couple-2-27,.cls-25_couple-2-27,.cls-26_couple-2-27,.cls-27_couple-2-27,.cls-28_couple-2-27,.cls-29_couple-2-27,.cls-30_couple-2-27,.cls-31_couple-2-27,.cls-32_couple-2-27,.cls-33_couple-2-27,.cls-34_couple-2-27,.cls-35_couple-2-27,.cls-36_couple-2-27,.cls-37_couple-2-27,.cls-38_couple-2-27{stroke-width:0px;}.cls-2_couple-2-27{fill:url(#linear-gradient-29-couple-2-27);}.cls-3_couple-2-27{fill:url(#linear-gradient-32-couple-2-27);}.cls-4_couple-2-27{fill:url(#linear-gradient-30-couple-2-27);}.cls-5_couple-2-27{fill:url(#linear-gradient-31-couple-2-27);}.cls-6_couple-2-27{fill:url(#linear-gradient-11-couple-2-27);}.cls-7_couple-2-27{fill:url(#linear-gradient-12-couple-2-27);}.cls-8_couple-2-27{fill:url(#linear-gradient-13-couple-2-27);}.cls-9_couple-2-27{fill:url(#linear-gradient-10-couple-2-27);}.cls-10_couple-2-27{fill:url(#linear-gradient-17-couple-2-27);}.cls-11_couple-2-27{fill:url(#linear-gradient-16-couple-2-27);}.cls-12_couple-2-27{fill:url(#linear-gradient-19-couple-2-27);}.cls-13_couple-2-27{fill:url(#linear-gradient-15-couple-2-27);}.cls-14_couple-2-27{fill:url(#linear-gradient-21-couple-2-27);}.cls-15_couple-2-27{fill:url(#linear-gradient-18-couple-2-27);}.cls-16_couple-2-27{fill:url(#linear-gradient-14-couple-2-27);}.cls-17_couple-2-27{fill:url(#linear-gradient-22-couple-2-27);}.cls-18_couple-2-27{fill:url(#linear-gradient-20-couple-2-27);}.cls-19_couple-2-27{fill:url(#linear-gradient-27-couple-2-27);}.cls-20_couple-2-27{fill:url(#linear-gradient-24-couple-2-27);}.cls-21_couple-2-27{fill:url(#linear-gradient-26-couple-2-27);}.cls-22_couple-2-27{fill:url(#linear-gradient-23-couple-2-27);}.cls-22_couple-2-27,.cls-23_couple-2-27,.cls-24_couple-2-27,.cls-25_couple-2-27{opacity:.65;}.cls-22_couple-2-27,.cls-23_couple-2-27,.cls-24_couple-2-27,.cls-25_couple-2-27,.cls-34_couple-2-27{isolation:isolate;}.cls-23_couple-2-27{fill:url(#linear-gradient-25-couple-2-27);}.cls-24_couple-2-27{fill:url(#linear-gradient-28-couple-2-27);}.cls-25_couple-2-27{fill:url(#linear-gradient);}.cls-26_couple-2-27{fill:url(#linear-gradient-4-couple-2-27);}.cls-27_couple-2-27{fill:url(#linear-gradient-2-couple-2-27);}.cls-28_couple-2-27{fill:url(#linear-gradient-3-couple-2-27);}.cls-29_couple-2-27{fill:url(#linear-gradient-8-couple-2-27);}.cls-30_couple-2-27{fill:url(#linear-gradient-9-couple-2-27);}.cls-31_couple-2-27{fill:url(#linear-gradient-7-couple-2-27);}.cls-32_couple-2-27{fill:url(#linear-gradient-5-couple-2-27);}.cls-33_couple-2-27{fill:url(#linear-gradient-6-couple-2-27);}.cls-34_couple-2-27{opacity:.24;}.cls-34_couple-2-27,.cls-38_couple-2-27{fill:#68e1fd;}.cls-35_couple-2-27{fill:#231f20;}.cls-36_couple-2-27{fill:#fff;}.cls-37_couple-2-27{fill:#ffb4a3;}</style><linearGradient id="linear-gradient-couple-2-27" x1="218.83" y1="329.53" x2="237.6" y2="329.53" gradientUnits="userSpaceOnUse"><stop offset="0" stop-color="#fff" stop-opacity="0"/><stop offset=".07" stop-color="#fff" stop-opacity=".22"/><stop offset=".16" stop-color="#fff" stop-opacity=".45"/><stop offset=".25" stop-color="#fff" stop-opacity=".65"/><stop offset=".33" stop-color="#fff" stop-opacity=".8"/><stop offset=".4" stop-color="#fff" stop-opacity=".91"/><stop offset=".46" stop-color="#fff" stop-opacity=".98"/><stop offset=".51" stop-color="#fff"/></linearGradient><linearGradient id="linear-gradient-2-couple-2-27" x1="718.32" y1="1419.42" x2="734.29" y2="1456.49" gradientTransform="translate(-473.53 1723.58) scale(1 -1)" gradientUnits="userSpaceOnUse"><stop offset="0" stop-color="#231f20" stop-opacity="0"/><stop offset="1" stop-color="#231f20"/></linearGradient><linearGradient id="linear-gradient-3-couple-2-27" x1="710.61" y1="1426.1" x2="698.68" y2="891.52" xlink:href="#linear-gradient-2-couple-2-27"/><linearGradient id="linear-gradient-4-couple-2-27" x1="628.28" y1="1403.27" x2="637.01" y2="1427.4" gradientTransform="translate(-471 1755.72) scale(1 -1)" xlink:href="#linear-gradient-2-couple-2-27"/><linearGradient id="linear-gradient-5-couple-2-27" x1="620.9" y1="1399.2" x2="664.03" y2="1403.35" xlink:href="#linear-gradient-2-couple-2-27"/><linearGradient id="linear-gradient-6-couple-2-27" x1="613.5" y1="1438.89" x2="717.8" y2="1292.48" gradientTransform="translate(-471 1755.72) scale(1 -1)" xlink:href="#linear-gradient-2-couple-2-27"/><linearGradient id="linear-gradient-7-couple-2-27" x1="761.12" y1="1394.52" x2="759.96" y2="1412.99" gradientTransform="translate(-471 1755.72) scale(1 -1)" xlink:href="#linear-gradient-2-couple-2-27"/><linearGradient id="linear-gradient-8-couple-2-27" x1="741.8" y1="1435.3" x2="846.11" y2="1288.89" gradientTransform="translate(-471 1755.72) scale(1 -1)" xlink:href="#linear-gradient-2-couple-2-27"/><linearGradient id="linear-gradient-9-couple-2-27" x1="678.98" y1="1441.53" x2="708.13" y2="1426.18" xlink:href="#linear-gradient-2-couple-2-27"/><linearGradient id="linear-gradient-10-couple-2-27" x1="678.22" y1="1401.19" x2="666.94" y2="1388.36" xlink:href="#linear-gradient-2-couple-2-27"/><linearGradient id="linear-gradient-11-couple-2-27" x1="690.52" y1="1508.7" x2="729.82" y2="1474.09" xlink:href="#linear-gradient-2-couple-2-27"/><linearGradient id="linear-gradient-12-couple-2-27" x1="750.32" y1="1402.57" x2="855.41" y2="1262.73" xlink:href="#linear-gradient-2-couple-2-27"/><linearGradient id="linear-gradient-13-couple-2-27" x1="708.3" y1="1408.76" x2="1003.11" y2="1419.66" xlink:href="#linear-gradient-2-couple-2-27"/><linearGradient id="linear-gradient-14-couple-2-27" x1="736.55" y1="1433.96" x2="739.93" y2="1463.6" xlink:href="#linear-gradient-2-couple-2-27"/><linearGradient id="linear-gradient-15-couple-2-27" x1="765.63" y1="1501.01" x2="737.95" y2="1546.11" xlink:href="#linear-gradient-2-couple-2-27"/><linearGradient id="linear-gradient-16-couple-2-27" x1="739.25" y1="1494.82" x2="949.95" y2="1369.75" xlink:href="#linear-gradient-2-couple-2-27"/><linearGradient id="linear-gradient-17-couple-2-27" x1="756.86" y1="1494.92" x2="659.07" y2="1452.48" xlink:href="#linear-gradient-2-couple-2-27"/><linearGradient id="linear-gradient-18-couple-2-27" x1="729.77" y1="1520.75" x2="771.69" y2="1547.63" xlink:href="#linear-gradient-2-couple-2-27"/><linearGradient id="linear-gradient-19-couple-2-27" x1="734.81" y1="1504.72" x2="654.5" y2="1376.67" xlink:href="#linear-gradient-2-couple-2-27"/><linearGradient id="linear-gradient-20-couple-2-27" x1="722.85" y1="1540.26" x2="646.73" y2="1416.59" xlink:href="#linear-gradient-2-couple-2-27"/><linearGradient id="linear-gradient-21-couple-2-27" x1="718.61" y1="1552.46" x2="743.69" y2="1537.33" xlink:href="#linear-gradient-2-couple-2-27"/><linearGradient id="linear-gradient-22-couple-2-27" x1="749.6" y1="1515.33" x2="739.49" y2="1539.69" xlink:href="#linear-gradient-2-couple-2-27"/><linearGradient id="linear-gradient-23-couple-2-27" x1="700.33" y1="1390.4" x2="721.13" y2="1390.4" gradientTransform="translate(-473.53 1723.58) scale(1 -1)" xlink:href="#linear-gradient-couple-2-27"/><linearGradient id="linear-gradient-24-couple-2-27" x1="744.55" y1="1447.62" x2="738.79" y2="1534.16" xlink:href="#linear-gradient-2-couple-2-27"/><linearGradient id="linear-gradient-25-couple-2-27" x1="636.34" y1="1516.96" x2="646.53" y2="1516.69" gradientTransform="translate(-471 1755.72) scale(1 -1)" xlink:href="#linear-gradient-couple-2-27"/><linearGradient id="linear-gradient-26-couple-2-27" x1="657.62" y1="1485.42" x2="646.25" y2="1435.31" xlink:href="#linear-gradient-2-couple-2-27"/><linearGradient id="linear-gradient-27-couple-2-27" x1="625.84" y1="1433.44" x2="912.66" y2="1387.8" xlink:href="#linear-gradient-2-couple-2-27"/><linearGradient id="linear-gradient-28-couple-2-27" x1="778.43" y1="1462.59" x2="749.62" y2="1305.13" gradientTransform="translate(-473.53 1723.58) scale(1 -1)" gradientUnits="userSpaceOnUse"><stop offset="0" stop-color="#fff" stop-opacity="0"/><stop offset=".11" stop-color="#fff" stop-opacity="0"/><stop offset=".18" stop-color="#fff" stop-opacity=".04"/><stop offset=".24" stop-color="#fff" stop-opacity=".1"/><stop offset=".29" stop-color="#fff" stop-opacity=".18"/><stop offset=".34" stop-color="#fff" stop-opacity=".28"/><stop offset=".38" stop-color="#fff" stop-opacity=".41"/><stop offset=".43" stop-color="#fff" stop-opacity=".56"/><stop offset=".46" stop-color="#fff" stop-opacity=".74"/><stop offset=".5" stop-color="#fff" stop-opacity=".93"/><stop offset=".51" stop-color="#fff"/></linearGradient><linearGradient id="linear-gradient-29-couple-2-27" x1="768.32" y1="1409.09" x2="768.55" y2="1398.5" xlink:href="#linear-gradient-2-couple-2-27"/><linearGradient id="linear-gradient-30-couple-2-27" x1="768.37" y1="1406.24" x2="768.6" y2="1395.66" xlink:href="#linear-gradient-2-couple-2-27"/><linearGradient id="linear-gradient-31-couple-2-27" x1="765.82" y1="1435.23" x2="766.05" y2="1424.71" gradientTransform="translate(-471 1755.72) scale(1 -1)" xlink:href="#linear-gradient-2-couple-2-27"/><linearGradient id="linear-gradient-32-couple-2-27" x1="722.51" y1="1540.91" x2="728.67" y2="1546.34" xlink:href="#linear-gradient-2-couple-2-27"/></defs><g id="background_couple-2-27"><path class="cls-34_couple-2-27 targetColor" d="M457.43,358.69c-9.59,31.04-34.57,57.87-66.56,66.17-47.68,12.43-96.55-12.53-145.72-16.13-31.55-2.32-62.99,4.21-94.56,6.42-31.57,2.21-65.34-.6-90.91-18.93-13.39-9.67-23.41-22.82-30.79-37.53-5.79-11.81-10.13-24.25-12.93-37.08-2.4-10.74-4.07-21.78-2.96-32.74,4.31-42.95,47.51-71.23,65.17-110.71,9.16-20.47,11.29-43.84,23.28-62.77,34.45-54.56,94.53-29.15,146.06-29.19,51.53-.04,101.03-13.85,144.29,23.19,7.3,6.23,13.92,13.55,17.51,22.4,8.25,20.22-.8,43.01.11,64.76,1.83,41.2,38.52,72.76,49.4,112.57,4.46,16.32,3.63,33.5-1.38,49.56Z" style="fill: rgb(37, 211, 251);"/><path class="cls-38_couple-2-27 targetColor" d="M457.43,358.69c-9.59,31.04-34.57,57.87-66.56,66.17-47.68,12.43-96.55-12.53-145.72-16.13-31.55-2.32-62.99,4.21-94.56,6.42-31.57,2.21-65.34-.6-90.91-18.93-13.39-9.67-23.41-22.82-30.79-37.53h428.54Z" style="fill: rgb(37, 211, 251);"/></g><g id="couple_on_scooter_couple-2-27"><path class="cls-38_couple-2-27 targetColor" d="M237.55,325.24c-.29,1.42-.7,2.82-1.21,4.17-.5,1.6-.79,3.26-.88,4.93.02.54-.08,1.08-.3,1.58-.24.49-.82.73-1.34.55l.31-6.31c-.7,1.46-1.53,2.87-2.46,4.2-.37.57-.83,1.08-1.37,1.5-.53.35-1.11.62-1.72.79-3.15.95-6.46,1.26-9.73.91-.13-1.01.66-1.89,1.44-2.56,3.09-2.64,7.03-4.35,9.59-7.53.93-1.17,1.65-2.5,2.58-3.67.74-.93,2.4-2.67,3.76-2.41s1.5,2.75,1.33,3.85Z" style="fill: rgb(37, 211, 251);"/><path class="cls-25_couple-2-27" d="M237.55,325.24c-.29,1.42-.7,2.82-1.21,4.17-.5,1.6-.79,3.26-.88,4.93.02.54-.08,1.08-.3,1.58-.24.49-.82.73-1.34.55l.31-6.31c-.7,1.46-1.53,2.87-2.46,4.2-.37.57-.83,1.08-1.37,1.5-.53.35-1.11.62-1.72.79-3.15.95-6.46,1.26-9.73.91-.13-1.01.66-1.89,1.44-2.56,3.09-2.64,7.03-4.35,9.59-7.53.93-1.17,1.65-2.5,2.58-3.67.74-.93,2.4-2.67,3.76-2.41s1.5,2.75,1.33,3.85Z"/><path class="cls-37_couple-2-27" d="M232.41,308.93s-.13,13.99-6.96,22.94c0,0,3.11,1.72,5.1,0s5.71-7.85,5.71-7.85l.99-8.59.75-8.46-5.59,1.96Z"/><path class="cls-38_couple-2-27 targetColor" d="M287,274.36c1.11-2.31.91-5.03-.52-7.16-1.44-2.09-3.47-3.7-5.85-4.64-2.36-.92-4.79-1.66-7.26-2.23-9.08-2.44-17.75-6.11-26.66-9.1-1.64-.55-3.39-1.08-5.07-.67-1.58.51-2.94,1.54-3.85,2.91-2.29,3.05-3.42,6.79-4.15,10.52-1.6,8.19-1.49,16.61-1.36,24.95.11,7.1-1.16,14.03-.8,21.14,1,.09,1.98.3,2.93.62.97.32,2.04.15,2.85-.46.36-.38.63-.84.8-1.33,1.75-4.44,2.61-9.17,3.9-13.76,2.5-8.92,6.7-17.81,5.59-27.01l7.99,6.31c3.1,2.44,6.27,4.92,9.97,6.35,2.68.98,5.51,1.55,8.37,1.68,2.09.24,4.21.04,6.22-.58,3.17-1.2,5.27-4.55,6.89-7.53Z" style="fill: rgb(37, 211, 251);"/><path class="cls-27_couple-2-27" d="M287,274.36c1.11-2.31.91-5.03-.52-7.16-1.44-2.09-3.47-3.7-5.85-4.64-2.36-.92-4.79-1.66-7.26-2.23-9.08-2.44-17.75-6.11-26.66-9.1-1.64-.55-3.39-1.08-5.07-.67-1.58.51-2.94,1.54-3.85,2.91-2.29,3.05-3.42,6.79-4.15,10.52-1.6,8.19-1.49,16.61-1.36,24.95.11,7.1-1.16,14.03-.8,21.14,1,.09,1.98.3,2.93.62.97.32,2.04.15,2.85-.46.36-.38.63-.84.8-1.33,1.75-4.44,2.61-9.17,3.9-13.76,2.5-8.92,6.7-17.81,5.59-27.01l7.99,6.31c3.1,2.44,6.27,4.92,9.97,6.35,2.68.98,5.51,1.55,8.37,1.68,2.09.24,4.21.04,6.22-.58,3.17-1.2,5.27-4.55,6.89-7.53Z"/><path class="cls-28_couple-2-27" d="M125.24,359.39c-3.37.2-7.45.88-8.66,3.98,6.09,2.77,13.01,2.99,19.7,3.04,31.53.24,62.04,3.16,93.56,3,35.37-.21,71.71-2.97,107.07-3.58,6.05-.1,12.3-.36,17.74-2.97-13.43-1.41-26.89-2.39-40.4-2.92-51.3-2.04-102.77,2.6-154.02-1.19-11.75-.85-23.23-.06-35,.64Z"/><path class="cls-36_couple-2-27" d="M304.83,338.96c3.81-4.93,8.64-9,14.16-11.94,5.74-3.05,13.58-4.53,18.23-.06,1.11-5.96,3.46-11.97,8.13-15.9,4.67-3.94,12.03-5.16,16.96-1.58.69.65,1.53,1.13,2.44,1.4,1.85.33,3.32-1.39,4.47-2.85,4.27-5.47,10.21-10.18,17.17-10.81,11.7-1.05,21.57,10.37,22.64,21.92.26,2.85.14,5.81,1.2,8.47,1.19,2.98,3.73,5.28,5.03,8.22,2.48,5.63-.42,12.58-5.45,16.18-5.03,3.61-11.65,4.41-17.84,3.83-6.19-.58-12.19-2.37-18.31-3.56-1.35-.36-2.77-.36-4.11,0-1.27.6-2.37,1.5-3.2,2.62-3.37,3.72-7.25,7.15-11.93,9.04-11.3,4.56-24.03-.71-36.24-.51-5.43.09-10.91,1.27-16.24.28-5.07-.94-11.99-5.45-9.11-10.87,1.09-2.06,4.79-4.17,6.39-6.11,2.01-2.44,3.64-5.22,5.61-7.79Z"/><ellipse class="cls-35_couple-2-27" cx="160.88" cy="342.51" rx="21.61" ry="21.34"/><ellipse class="cls-26_couple-2-27" cx="160.88" cy="342.51" rx="21.61" ry="21.34"/><path class="cls-38_couple-2-27 targetColor" d="M141.74,323.61l35.8,8.16s-3.85-22.02-12.94-23.93-27.81-2.99-22.86,15.77Z" style="fill: rgb(37, 211, 251);"/><path class="cls-32_couple-2-27" d="M141.36,326.95l35.79,8.15s-3.85-22.02-12.94-23.92c-9.08-1.9-27.81-2.98-22.85,15.77Z"/><ellipse class="cls-36_couple-2-27" cx="160.74" cy="343.22" rx="13.54" ry="13.36"/><ellipse class="cls-33_couple-2-27" cx="161.18" cy="343.05" rx="10.99" ry="10.85"/><ellipse class="cls-35_couple-2-27" cx="289.19" cy="346.31" rx="21.61" ry="21.34"/><ellipse class="cls-31_couple-2-27" cx="289.19" cy="346.31" rx="21.61" ry="21.34"/><ellipse class="cls-36_couple-2-27" cx="289.64" cy="346.61" rx="13.54" ry="13.36"/><ellipse class="cls-29_couple-2-27" cx="289.48" cy="346.64" rx="10.99" ry="10.85"/><path class="cls-35_couple-2-27" d="M240.65,247.7s-33.77,14.86-36.35,27.9c-2.57,13.05-13.95,48.91-13.95,48.91l9.18,11.04,20.19-57.81,25.81-31.23-4.88,1.18Z"/><path class="cls-30_couple-2-27" d="M240.65,247.7s-33.77,14.86-36.35,27.9c-2.57,13.05-13.95,48.91-13.95,48.91l9.18,11.04,20.19-57.81,25.81-31.23-4.88,1.18Z"/><path class="cls-38_couple-2-27 targetColor" d="M193.37,328.01c-2.62-.13-5.22-.68-7.85-.65-1.36-.07-2.71.27-3.87.99-1.16.76-1.63,2.22-1.13,3.51.3.52.72.97,1.22,1.31,3.53,2.73,7.78,4.4,12.25,4.8,1.9.17,3.82.1,5.72.32,2.45.29,4.81,1.04,6.98,2.21l2.97-9.37c.64-.96.37-2.24-.6-2.87-.14-.09-.29-.16-.44-.22-2.13-1.23-5.15-2.96-7.68-1.89-2.65,1.13-4.51,2-7.57,1.85Z" style="fill: rgb(37, 211, 251);"/><path class="cls-9_couple-2-27" d="M193.37,328.01c-2.62-.13-5.22-.68-7.85-.65-1.36-.07-2.71.27-3.87.99-1.16.76-1.63,2.22-1.13,3.51.3.52.72.97,1.22,1.31,3.53,2.73,7.78,4.4,12.25,4.8,1.9.17,3.82.1,5.72.32,2.45.29,4.81,1.04,6.98,2.21l2.97-9.37c.64-.96.37-2.24-.6-2.87-.14-.09-.29-.16-.44-.22-2.13-1.23-5.15-2.96-7.68-1.89-2.65,1.13-4.51,2-7.57,1.85Z"/><path class="cls-38_couple-2-27 targetColor" d="M242.48,198.77s-9.17,20.28-16.12,21.57-27.35,6.89-28.64,9.24.37,7.43.37,7.43c0,0,13.03,2.9,24.59-2,7.42-3.26,14.34-7.53,20.56-12.69l2.57-20.83-3.33-2.72Z" style="fill: rgb(37, 211, 251);"/><path class="cls-6_couple-2-27" d="M242.48,198.77s-9.17,20.28-16.12,21.57-27.35,6.89-28.64,9.24.37,7.43.37,7.43c0,0,13.03,2.9,24.59-2,7.42-3.26,14.34-7.53,20.56-12.69l2.57-20.83-3.33-2.72Z"/><path class="cls-37_couple-2-27" d="M191.64,230.15c-1.06-.14-2.14-.14-3.2,0-.85.16-1.68.46-2.44.88-1.27.65-2.5,1.64-2.8,3.02-.13.8-.03,1.62.28,2.37.69,2.04,2.42,3.57,4.55,4.02.76.2,1.57-.08,2.03-.71.12-.32.21-.64.26-.97.38-.95,1.25-1.63,2.28-1.77,1.01-.12,2.02-.15,3.04-.09,1.02.06,2.03-.26,2.84-.88.68-.7,1.02-1.66.91-2.63-.11-1.58-.52-2.74-2.13-2.87-1.85-.1-3.73-.22-5.62-.36Z"/><path class="cls-38_couple-2-27 targetColor" d="M325.57,344.27c-40.05-.95-80.25,8.5-119.94,3.01-15.6-2.15-31.82-7.19-41.98-19.1-4.79-5.66-7.94-13.74-5.67-20.51.34-1.1.84-2.15,1.47-3.12,1.66-2.57,4.15-4.5,6.26-6.72,5.67-6.01,8.53-14.13,9.88-22.24,1.35-8.11,1.47-16.37,2.4-24.51.02-.93.32-1.83.85-2.6.24-.27.55-.49.89-.63,1.21-.46,2.57-.37,3.71.25,3.2,1.58,4.92,5.16,5.26,8.68.34,3.52-.5,7-1.3,10.44-2.99,12.71-5.48,25.85-3.46,38.75,2.02,12.9,9.41,25.66,21.45,31.04,6.93,2.77,14.45,3.81,21.89,3.03,6.86-.79,13.5-3.33,17.13-8.91,3.07-4.69,3.43-10.59,3.32-16.17-.1-4.64-.44-9.26-1.03-13.86-.5-3.88-1.38-8.12-4.46-10.63-1.33-.98-2.8-1.74-4.37-2.26-.8-.33-1.69-.63-2.49-1.01-2.33-1.1-4.59-2.98-4.73-5.52-.11-2.37,1.77-4.48,4-5.39s4.71-.87,7.11-.79c20.59.39,46.34-.79,61.38,15.85,4.43,4.92,7.45,10.9,10.1,16.91,5.18,11.62,9.32,23.68,12.36,36.02Z" style="fill: rgb(37, 211, 251);"/><path class="cls-7_couple-2-27" d="M286.6,286.41s31.52,19.87,29.56,46.7l-56.45,3.28-10.88,12.12,76.27-5.67s-12.18-52.7-32.05-58.66l-6.45,2.23Z"/><path class="cls-8_couple-2-27" d="M257.8,336.19c-6.03,2.71-30.99,5.88-30.99,5.88l.42-2.03c6.86-.79,13.5-3.33,17.13-8.91,3.07-4.69,3.43-10.59,3.32-16.17-.08-4.63-.41-9.26-.99-13.86-.5-3.88-1.38-8.12-4.46-10.63-1.33-.98-2.8-1.74-4.37-2.26l.08-.43s16.55,1.72,22,9.81c5.46,8.09,3.9,35.94-2.13,38.62Z"/><path class="cls-35_couple-2-27" d="M236.23,271.5c-2.9.07-6.39.6-7.51,3.26-.89,2.2.57,4.77,2.64,5.98,2.07,1.21,4.55,1.38,6.95,1.54,16.12,1.05,32.22,2.43,48.3,4.13,2.4.25,4.79.51,7.12-.05s4.55-2.11,5.2-4.38c.54-2.03-.22-4.18-1.92-5.44-2.13-1.51-3.56-.42-5.73-.24-2.3.18-4.79-.67-7.06-1.08-5.31-.95-13.39-11.45-18.75-12.05-10.61-1.18-18.56,8.07-29.24,8.32Z"/><path class="cls-16_couple-2-27" d="M236.75,271.5c-2.9.07-6.39.6-7.51,3.26-.89,2.2.57,4.77,2.64,5.98,2.07,1.21,4.55,1.38,6.95,1.54,16.12,1.05,32.22,2.43,48.3,4.13,2.4.25,4.79.51,7.12-.05s4.55-2.11,5.2-4.38c.54-2.03-.22-4.18-1.92-5.44-2.13-1.51-3.56-.42-5.73-.24-2.3.18-4.79-.67-7.06-1.08-5.31-.95-7.19-9.91-12.52-10.5-10.65-1.18-24.83,6.52-35.47,6.78Z"/><path class="cls-38_couple-2-27 targetColor" d="M247.54,328.49c-.32,1.57-.77,3.12-1.34,4.62-.55,1.77-.88,3.61-.98,5.46.03.59-.09,1.17-.33,1.71-.27.55-.91.81-1.49.62l.35-6.98c-.78,1.62-1.69,3.18-2.73,4.65-.4.64-.91,1.2-1.51,1.66-.59.38-1.23.66-1.91.83-3.49,1.05-7.15,1.39-10.78,1.01-.14-1.12.73-2.1,1.6-2.84,3.43-2.93,7.8-4.82,10.61-8.33,1.03-1.29,1.82-2.77,2.86-4.07.8-1.03,2.63-2.96,4.17-2.67s1.65,3.12,1.49,4.34Z" style="fill: rgb(37, 211, 251);"/><path class="cls-35_couple-2-27" d="M255.77,188.78c-1.49-2.83-.58-6.52,1.68-8.8,2.25-2.29,5.59-3.31,8.79-3.35,5.15-.04,10.07,2.12,13.48,5.93,1.14,1.29,2.16,2.8,3.73,3.52,1.26.58,2.72.56,4.11.71,2.6.28,5.26,1.26,6.9,3.28s2.4,5.39,5.03,6.31c1.39.47,2.92.09,4.39.13,5.07.14,8.53,5.13,13.24,7.01,1.97.79,4.14,1.01,6.19,1.58,2.05.57,4.15,1.58,5.21,3.38,1.6,2.75.34,6.23-1.14,9.04-1.6,2.96-3.56,5.96-6.66,7.29-1.51.58-3.11.91-4.73.99-4.26.46-8.56.21-12.74-.73-4.19-.96-7.99-3.17-10.89-6.31-1.18-1.35-2.15-2.87-3.38-4.17-1.17-1.38-2.82-2.27-4.63-2.52-2.4-.17-4.62,1.39-7.02,1.49-2.82.11-5.35-1.78-8.15-2.11-1.24-.15-2.52,0-3.72-.36-2.12-.63-3.46-2.73-4.05-4.84-1.08-3.78.09-7.57-.52-11.32-.44-2.82-3.77-3.77-5.12-6.15Z"/><path class="cls-13_couple-2-27" d="M277.93,194.12c2.07,1.25,4.51,1.74,6.78,2.56s4.59,2.11,5.59,4.28c.8,1.68.69,3.64,1.42,5.33.24.69.76,1.26,1.43,1.58.54.17,1.12.21,1.69.12,3.09-.23,6.46-.1,8.91,1.78,4,3.08,4.1,9.77,8.58,12.12.13.61-.67.95-1.29,1.04-5.09.79-10.65.91-15.01-1.82-1.58-1.07-3.03-2.32-4.32-3.72l-5.43-5.44c-.58-.62-1.25-1.16-1.99-1.58-1-.45-2.1-.65-3.2-.58-1.52,0-3.04.19-4.52.54-1.2.28-2.4.69-3.59.88-1.6.21-3.22.16-4.79-.15-1.57-.19-3.08-.77-4.37-1.67-1.73-1.36-2.54-3.57-3.01-5.7-.46-2.12-.65-4.28-.59-6.45-.04-.85.16-1.7.58-2.45.48-.62,1.1-1.13,1.81-1.48,2.64-1.58,5.94-3.66,9.17-3.49,2.52.06,4.12,3.1,6.15,4.32Z"/><path class="cls-36_couple-2-27" d="M289.27,215.11c1.3,2.59,2.39,5.27,3.26,8.02,2.06,5.93,4.15,12.18,3.08,18.37-.22,1.52-.76,2.99-1.6,4.28-2.52,3.66-7.59,4.4-12.07,4.64-1.11.13-2.24.05-3.32-.24-1.65-.54-2.85-1.95-3.85-3.36-5.82-8.23-7.83-18.5-8.5-28.51-.16-2.41-.22-4.94.8-7.1,1.67-3.52,6.65-9.35,11.12-8.33,4.65,1.01,9.02,8.37,11.07,12.22Z"/><path class="cls-36_couple-2-27" d="M300.71,262.29c.25,1.01.28,2.06.1,3.08-.48,1.83-2.24,2.3-3.76,2.5-5.23.69-10.54.6-15.74-.26-1.04-.08-2-.58-2.64-1.4-.36-.63-.61-1.31-.74-2.02-1.19-4.95-2.12-9.95-2.8-14.99-.11-.54-.11-1.09,0-1.63.2-.58.63-1.06,1.2-1.33,3.77-2.35,8.04-3.82,12.47-4.32,3.48-.39,5.87.28,7.59,4.62,1.96,5.09,3.41,10.36,4.31,15.74Z"/><path class="cls-11_couple-2-27" d="M287.82,221.35c1.47,2.45,3,5.14,2.69,7.97-.22,1.99-1.32,3.76-2.01,5.63-2.09,5.65-.45,11.9,1.13,17.71.35,1.28,1.8,4.79.8,5.65-.84.7-3.32-1.41-4.28-1.92s-3.26,2.18-4.29,1.79c-4.45-1.69-6.3-1.84-6.58-8.24-.14-3.16.8-5.33,2.4-7.89,1.89-2.92,3.88-5.33,5.39-8.53.84-1.72,5.73-10.59,4.77-12.18Z"/><path class="cls-10_couple-2-27" d="M275,219.37c-.29.38-.72.62-1.2.69-.8,0-6.92-6.05-8.34-3.16-.2.39.7.99.8,1.41,3.03,11.19,6.66,22.26,9.68,33.45,2.14-1.74,3-4.62,3.15-7.34.15-2.73-.3-5.47-.2-8.2.14-4,1.41-7.89,2.01-11.83.35-2.37.95-7.26-.8-9.29-1.94-2.29-3.69,2.85-5.09,4.27Z"/><path class="cls-38_couple-2-27 targetColor" d="M244.35,194.96c-1.91,2.3-2.13,5.52-2.16,8.5-.12,11.43,1.16,22.82,2.64,34.16.69,5.31,1.49,10.81,4.46,15.29,2.96,4.48,8.73,7.62,13.86,5.91,3.79-1.27,6.39-4.85,7.66-8.6,2.16-6.25,1.39-13.14-.32-19.53s-4.31-12.52-5.84-18.93c-.89-3.74-1.41-7.57-2.69-11.2-1.09-3.1-3.27-7.69-6.73-8.68-3.31-1.03-8.72.49-10.88,3.08Z" style="fill: rgb(37, 211, 251);"/><path class="cls-15_couple-2-27" d="M254.07,194.41c.17.5.85.6,1.23.98.29.42.44.92.42,1.43.3,1.54,1.07,2.96,2.19,4.07,1.11,1.11,2.13,2.3,3.04,3.58,1.29,2.08,1.6,4.62,2.8,6.76.41-2.23-.61-4.45-1.13-6.66-.5-2.08-.55-4.25-1.07-6.31s-1.65-4.16-3.6-5.1c-.85-.42-1.68-.73-2.49-1.21-.51-.33-1.1-.5-1.7-.51-.5,0-.8.1-.72.61.04.36.55.72.73,1.03.27.46.14.85.3,1.33Z"/><path class="cls-12_couple-2-27" d="M247.01,225.5c1.48-5.57,2.49-11.24,3.04-16.97,2.18,1.45,2.61,4.4,2.72,6.99.16,3.98.01,7.96-.44,11.92-.21,1.8-.45,3.75.46,5.32,1.21,2.11,4.14,2.73,6.5,2.07s4.31-2.28,6.22-3.82c.63-.51,1.4-1.06,2.2-.87,1.1.25,1.41,1.67,1.29,2.78-.44,4.17-3.72,7.62-7.53,9.47s-8.13,2.31-12.35,2.7c-.74.15-1.5.06-2.18-.26-.85-.52-1.09-1.63-1.24-2.6l-1.26-8.07c-.11-.71-1.08-2.22-.96-2.78.16-.79,1.06-.84,1.45-1.5.91-1.35,1.61-2.83,2.08-4.38Z"/><path class="cls-37_couple-2-27" d="M254.81,176.68c-.44,4.62-1.38,9.21-1.02,13.8.11,1.14.27,2.37-.3,3.36-.66,1.12-2.05,1.58-3.35,1.85-1.98.44-4,.69-6.03.74-.22.02-.44-.02-.64-.11-.16-.16-.27-.36-.34-.58-.14-.43-.27-.88-.42-1.31-.22-.6-.42-1.23-.61-1.86-.06-.28-.21-.53-.44-.71-.11-.05-.22-.08-.34-.08-.11-.01-.22-.01-.33,0h-3.04c-.53.04-1.06-.04-1.55-.22-.84-.49-1.38-1.36-1.44-2.32-.09-.95-.33-1.89-.72-2.76-.56-.9-1.64-1.53-1.85-2.6s.42-1.91.93-2.78c.86-1.43,1.44-3.01,1.72-4.65l.89-3.31c.89-1.58,2.55-2.63,4.12-3.58,1.57-.95,3.32-1.96,5.18-1.94,1.28.06,2.53.41,3.65,1.02,1.72.73,3.26,1.81,4.54,3.16.65.69,1.12,1.52,1.35,2.44.15.8.16,1.63.03,2.44Z"/><path class="cls-18_couple-2-27" d="M243.39,194.38c-.18,0-.36.17-.58.11,0,0-.06,0-.09-.06-.22-.6-.42-1.23-.61-1.86-.06-.28-.21-.53-.44-.71-.11-.05-.22-.08-.34-.08,2.05-.36,4.1-1.85,6.34-2.86,0,0-.14,4.67-4.28,5.46Z"/><path class="cls-35_couple-2-27" d="M232.6,170.83c1.09,2.14,3.72,3.16,6.14,3.05,1.09-.06,2.4-.26,3.13.54.46.47.62,1.24,1.21,1.51.76.35,1.83-.32,2.44.27.18.24.33.51.43.79.4.7,1.24,1.03,2.01.79l.25,5.14c.38-.71.56-1.51.52-2.31.07-.79.42-1.72,1.2-1.9,2.77.28,1.73,4.44.04,5.93.57.5,1.02,1.11,1.33,1.79.41.63,1.17,1.2,1.87.9s.8-1.25.92-2.02c.39-1.63,1.14-3.16,2.19-4.47,1.07-1.31,1.88-2.8,2.4-4.4.4-1.63.04-3.56-1.33-4.54.74-.86,1.51-1.87,1.33-2.97-.23-.79-.7-1.49-1.35-2-1.09-1.05-2.58-2.19-4-1.58-.23.13-.48.23-.74.27-.6,0-.93-.65-1.21-1.17-1.26-2.16-3.94-3.08-6.3-2.16-.33.19-.71.3-1.09.31-.29-.04-.56-.14-.8-.29-1.31-.73-2.88-1.34-4.28-.5-1.2.72-1.89,1.94-3.2,2.6-2.37,1.19-4.55,3.49-3.1,6.42Z"/><path class="cls-14_couple-2-27" d="M232.6,170.83c1.09,2.14,3.72,3.16,6.14,3.05,1.09-.06,2.4-.26,3.13.54.46.47.62,1.24,1.21,1.51.76.35,1.83-.32,2.44.27.18.24.33.51.43.79.4.7,1.24,1.03,2.01.79l.25,5.14c.38-.71.56-1.51.52-2.31.07-.79.42-1.72,1.2-1.9,2.83.38,1.73,4.44.04,5.93.57.5,1.02,1.11,1.33,1.79.41.63,1.17,1.2,1.87.9s.8-1.25.92-2.02c.39-1.63,1.14-3.16,2.19-4.47,1.07-1.31,1.88-2.8,2.4-4.4.4-1.63.04-3.56-1.33-4.54.74-.86,1.51-1.87,1.33-2.97-.23-.79-.7-1.49-1.35-2-1.09-1.05-2.58-2.19-4-1.58-.23.13-.48.23-.74.27-.6,0-.93-.65-1.21-1.17-1.26-2.16-3.94-3.08-6.3-2.16-.33.19-.71.3-1.09.31-.29-.04-.56-.14-.8-.29-1.31-.73-2.88-1.34-4.28-.5-1.2.72-1.89,1.94-3.2,2.6-2.37,1.19-4.55,3.49-3.1,6.42Z"/><path class="cls-35_couple-2-27" d="M246.65,244.5s-29.18,18.76-34.41,28.01c-5.23,9.25-13.5,53.83-13.5,53.83l10.74,7.1,16.88-53.32s35.96-13.87,39.1-16.95,5.65-14.03,5.65-14.03l-24.46-4.64Z"/><path class="cls-37_couple-2-27" d="M277.45,209.84c-1.38,1.26-3.53,1.2-4.84-.13-.06-.07-.12-.14-.17-.22-.32-.45-.59-.94-.8-1.44-.72-1.72-1.32-3.48-1.82-5.28,0-.13-.06-.27-.09-.41-.5-3.68,3.93-10.14,5.18-7.32,4.03,8.94,4.83,12.46,2.54,14.81Z"/><path class="cls-17_couple-2-27" d="M276.26,200.69c.06,1.25,0,2.54,0,3.8,0,1.01-.19,2.02-.53,2.97-.35.98-1.14,1.74-2.13,2.07-.34.11-.71.11-1.05,0h-.09c-.32-.45-.59-.94-.8-1.44-.72-1.72-1.32-3.48-1.82-5.28,0-.13-.06-.27-.09-.41.24-.5.51-.98.8-1.44.55-.9,1.16-1.78,1.8-2.65.53-.69,1.21-1.92,2.02-2.3,1.69-.82,1.83,3.74,1.89,4.67Z"/><path class="cls-37_couple-2-27" d="M258.32,194.94c.67,1.57,1.54,3.05,2.59,4.39,1.11,1.59,2.33,3.1,3.67,4.51,1.46,1.48,3.36,2.83,5.46,2.69,1.86-.23,3.48-1.38,4.3-3.05.79-1.66,1.14-3.48,1.01-5.31-.03-2.67-.7-5.3-1.94-7.68-.82-1.62-2.07-2.98-3.62-3.94-1.7-.89-3.59-1.33-5.51-1.3-1.11-.06-2.22.08-3.28.41-3.95,1.43-3.91,5.91-2.67,9.27Z"/><path class="cls-22_couple-2-27" d="M247.54,328.49c-.32,1.57-.77,3.12-1.34,4.62-.55,1.77-.88,3.61-.98,5.46.03.59-.09,1.17-.33,1.71-.27.55-.91.81-1.49.62l.35-6.98c-.78,1.62-1.69,3.18-2.73,4.65-.4.64-.91,1.2-1.51,1.66-.59.38-1.23.66-1.91.83-3.49,1.05-7.15,1.39-10.78,1.01-.14-1.12.73-2.1,1.6-2.84,3.43-2.93,7.8-4.82,10.61-8.33,1.03-1.29,1.82-2.77,2.86-4.07.8-1.03,2.63-2.96,4.17-2.67s1.65,3.12,1.49,4.34Z"/><path class="cls-37_couple-2-27" d="M241.83,310.43s-.14,15.49-7.71,25.42c0,0,3.44,1.9,5.65,0s6.33-8.68,6.33-8.68l1.1-9.51.8-9.38-6.17,2.15Z"/><path class="cls-38_couple-2-27 targetColor" d="M302.31,272.13c1.22-2.56,1.01-5.57-.58-7.94-1.59-2.31-3.85-4.1-6.48-5.14-2.62-1.02-5.31-1.85-8.05-2.48-10.05-2.7-19.66-6.78-29.56-10.09-1.81-.61-3.75-1.2-5.59-.74-1.75.57-3.26,1.7-4.27,3.23-2.53,3.38-3.79,7.53-4.59,11.65-1.78,9.07-1.65,18.4-1.5,27.61.12,7.89-1.29,15.55-.86,23.42,1.11.1,2.19.34,3.24.69,1.07.35,2.25.16,3.16-.5.39-.42.69-.93.87-1.48,1.94-4.92,2.89-10.16,4.31-15.25,2.78-9.88,7.42-19.72,6.17-29.92l8.85,6.96c3.44,2.71,6.95,5.46,11.05,7.04,2.98,1.08,6.11,1.71,9.28,1.86,2.32.27,4.66.05,6.89-.65,3.56-1.28,5.89-4.99,7.68-8.29Z" style="fill: rgb(37, 211, 251);"/><path class="cls-20_couple-2-27" d="M302.31,272.13c1.22-2.56,1.01-5.57-.58-7.94-1.59-2.31-3.85-4.1-6.48-5.14-2.62-1.02-5.31-1.85-8.05-2.48-10.05-2.7-19.66-6.78-29.56-10.09-1.81-.61-3.75-1.2-5.59-.74-1.75.57-3.26,1.7-4.27,3.23-2.53,3.38-3.79,7.53-4.59,11.65-1.78,9.07-1.65,18.4-1.5,27.61.12,7.89-1.29,15.55-.86,23.42,1.11.1,2.19.34,3.24.69,1.07.35,2.25.16,3.16-.5.39-.42.69-.93.87-1.48,1.94-4.92,2.89-10.16,4.31-15.25,2.78-9.88,7.42-19.72,6.17-29.92l8.85,6.96c3.44,2.71,6.95,5.46,11.05,7.04,2.98,1.08,6.11,1.71,9.28,1.86,2.32.27,4.66.05,6.89-.65,3.56-1.28,5.89-4.99,7.68-8.29Z"/><path class="cls-38_couple-2-27 targetColor" d="M169.53,231.23s13.7,3.87,15.48,6.25,1.6,11.83,1.6,11.83l-4.88-.21s.06-2.37-2.13-2.99-10.81.41-10.81.41c0,0-1.32-14.75.74-15.3Z" style="fill: rgb(37, 211, 251);"/><ellipse class="cls-38_couple-2-27 targetColor" cx="168.81" cy="238.85" rx="3.04" ry="7.67" style="fill: rgb(37, 211, 251);"/><ellipse class="cls-23_couple-2-27" cx="168.81" cy="238.85" rx="3.04" ry="7.67"/><path class="cls-36_couple-2-27" d="M270.26,230.36c-.34,1.05-.82,2.06-1.41,2.99-1.85,2.63-5.37,3.54-8.6,3.56-3.23.02-6.46-.68-9.68-.41-3.22.27-6.65,1.78-7.83,4.73-.43.98-.43,2.1,0,3.08.65,1.03,1.65,1.81,2.82,2.19,9.08,3.83,19.5,1.99,29.08-.37,2.48-.61,5.03-1.29,7-2.89,1.77-1.6,3.11-3.61,3.88-5.85,2.6-6.47,3.14-13.57,3.16-20.51,0-5.21-4.55-14.2-9.76-7.1-4.14,5.6-6.22,14.11-8.66,20.58Z"/><path class="cls-38_couple-2-27 targetColor" d="M182.09,235.74c3.62.02,7.24.26,10.83.73,7.34.91,1.83,7.1,1.83,7.1,0,0-5.85.68-8.16,5.77s-10.38-9.43-4.51-13.6Z" style="fill: rgb(37, 211, 251);"/><path class="cls-21_couple-2-27" d="M171.86,238.85s9.19,3.16,12.3,3.68,8.45-2.82,11.19-2.31.52,2.57.52,2.57c0,0-4.93,1.28-7.27,3.46-2.34,2.18-3.12,6.15-3.12,6.15l-4.55-4.48s.8-.67-1.33-1.81-10.77.41-10.77.41c0,0,3.2-2.22,3.03-7.67Z"/><path class="cls-38_couple-2-27 targetColor" d="M236.34,220.49c-.78,1.41-1.8,2.68-3.01,3.76-1.71,1.36-3.85,1.93-5.92,2.46l-19.49,5.02c-.8.12-1.55.48-2.14,1.03-.84.92-.8,2.37-.58,3.64.53,3.64,2.01,7.76,5.38,8.73,2.1.6,4.31-.24,6.34-1.06l22.96-9.29c2.16-.77,4.22-1.8,6.14-3.07,1.6-1.22,3.06-2.61,4.35-4.14,4-4.45,7.99-9.29,9.64-15.19,1.74-6.14-1.73-18.64-9.89-14.14-6.85,3.78-9.84,15.8-13.77,22.25Z" style="fill: rgb(37, 211, 251);"/><path class="cls-37_couple-2-27" d="M199.52,234.54c-2.4-.27-4.89-.24-7.02.84-2.13,1.07-3.76,3.42-3.32,5.74.36,1.41,1.16,2.68,2.28,3.64.99,1.04,2.22,1.81,3.6,2.26.52.17,1.07.19,1.6.06.52-.14.93-.55,1.05-1.07.03-.4-.03-.8-.18-1.18-.43-1.43-.61-2.93-.5-4.42,0-.26.07-.51.18-.73.18-.24.43-.42.72-.51,1.11-.5,2.42-.26,3.27.61.8.95.58,2.37,1.24,3.4.57.87,1.63,1.3,2.65,1.07.96-.34,1.78-.99,2.32-1.85.58-.7,1.03-1.5,1.31-2.37.4-1.49-.25-4.06-1.91-4.65-.94-.33-2.44-.15-3.48-.29-1.29-.18-2.55-.4-3.82-.54Z"/><ellipse class="cls-38_couple-2-27 targetColor" cx="199.62" cy="241.53" rx="3.1" ry="3.06" style="fill: rgb(37, 211, 251);"/><path class="cls-19_couple-2-27" d="M199.94,343.51s-19.48,2.68-34.48-18.47c-3.67-5.22-6.22-11.13-7.48-17.36.34-1.1.84-2.15,1.47-3.12,1.66-2.57,4.15-4.5,6.26-6.72,5.67-6.01,8.53-14.13,9.88-22.24,1.35-8.11,1.47-16.37,2.4-24.51.02-.93.32-1.83.85-2.6.24-.27.55-.49.89-.63.72.35,1.4.76,2.05,1.23,0,0,3.02.17,2.25,6.51-.78,6.34-11.29,38.47-4.87,54.43,6.42,15.97,20.8,33.47,20.8,33.47Z"/><path class="cls-35_couple-2-27" d="M257.4,194.05c.23.34.57.58.96.69.23.03.47.01.7-.05.82-.09,1.59-.41,2.24-.92.62-.54.68-1.48.13-2.09-.01-.02-.03-.03-.04-.04.68.63,1.64.85,2.53.59.86-.24,1.67-.63,2.4-1.14-.01-.56-.18-1.11-.5-1.58.86,1.48,3.2,1.44,4.55.37.16-.15.35-.27.56-.36.27-.05.55-.02.8.09.66.21,1.6.31,1.81-.35.05-.19.05-.4,0-.59-.19-1.55-.76-3.04-1.64-4.34-.81-.93-1.85-1.64-3.01-2.07-2.23-.91-4.66-1.22-7.05-.9-2.56.35-5.98,1.88-6.82,4.54s.76,6.2,2.37,8.13Z"/><path class="cls-38_couple-2-27 targetColor" d="M254.08,190.3c-.19-.05-.4-.03-.58.06l-8.22,2.6c-1.38.41-2.71.93-4,1.58-.25.1-.46.28-.6.51-.11.29-.11.61,0,.91.53,1.91,1.29,3.74,2.25,5.47,4.97-1.03,9.03-4.44,12.86-7.75.11-.08.19-.19.23-.32.1-.54-1.46-2.92-1.95-3.07Z" style="fill: rgb(37, 211, 251);"/><path class="cls-24_couple-2-27" d="M316.19,333.1c-2.63-2.07-4.57-4.89-6.75-7.43-1.71-2.01-3.64-3.83-5.76-5.41h.25c.43-.03.77-.36.8-.79,0-.44-.36-.79-.8-.79h-2.6c-.64-.39-1.3-.79-1.97-1.1h4.79c.4-.16.65-.56.61-.99-.08-.79-.61-.87-.61-.87h-9.5c-4.8-1.42-9.96-1.02-14.47,1.12-4.26,2.19-10.82,0-8.89-5.63,1.6-4.73,5.9-9.92,10.3-12.29,2.46-1.31,5.2-2.03,7.99-2.08,8.47-.21,16.39,5.14,20.84,12.24,4.45,7.11,5.84,15.68,5.76,24.01Z"/><path class="cls-2_couple-2-27" d="M304.71,316.61c.01.37-.24.7-.61.79-.07.02-.15.02-.22,0h-18.12c-.44,0-.8-.35-.8-.79s.36-.79.8-.79h18.11c.07-.01.15-.01.22,0,.37.08.63.41.62.79Z"/><path class="cls-4_couple-2-27" d="M304.76,319.44c-.03.42-.37.76-.8.79h-18.15c-.44,0-.8-.35-.8-.79s.36-.79.8-.79h18.12c.44-.02.81.32.83.76,0,.01,0,.02,0,.03Z"/><path class="cls-5_couple-2-27" d="M285.81,321.78h18.11c.45,0,.81.36.81.8h0c0,.44-.36.8-.81.8h-18.11c-.45,0-.81-.36-.81-.8h0c0-.44.36-.8.81-.8Z"/><path class="cls-37_couple-2-27" d="M240.96,238.16c-.47.77-.67,1.67-.58,2.56.09,1.18.54,2.31,1.29,3.24.19.25.43.46.71.61.28.15.63.15.91,0,.36-.24.42-.73.5-1.17.21-.91.61-1.77,1.15-2.53.8-1.21,1.5-2.22.1-3.16s-3.08-1.06-4.09.44Z"/><path class="cls-3_couple-2-27" d="M249.81,181.84c.06-.27-.11-.53-.17-.79-.1-.49.16-.98.62-1.18.09-.04.18-.06.28-.05.16.04.25.2.31.34.59,1.37.02,2.96-1.32,3.65-.08.06-.18.08-.28.06-.07-.03-.13-.09-.18-.16-.22-.35-.22-.8,0-1.15.22-.29.65-.33.74-.72Z"/><path class="cls-1_couple-2-27" d="M276.01,253.23c-3.66-1.26-7.45-2.11-11.3-2.52"/></g><g id="heart_couple-2-27"><path class="cls-38_couple-2-27 targetColor" d="M273.18,142.67c-1.51.12-2.84,1.02-3.51,2.37-1.05,2.19.05,4.87,1.79,6.57s4.04,2.71,6.1,4.02l3.56-4.02c1.13-1.29,2.33-2.69,2.5-4.39.15-2.38-1.67-4.43-4.07-4.61-1.2,0-2.01,1.25-2.87,1.27-1.1.02-2.1-1.31-3.51-1.21Z" style="fill: rgb(37, 211, 251);"/><path class="cls-38_couple-2-27 targetColor" d="M291.49,129.52c-.85.65-1.29,1.7-1.16,2.75.17,1.03.77,1.93,1.66,2.49.88.55,1.89.87,2.92.94,2.81.26,5.59-.68,8.25-1.58-.72-.79-.44-1.99-.31-3.03.21-1.69-.09-3.4-.86-4.92-.3-.67-.78-1.24-1.39-1.66-1.05-.52-2.27-.58-3.36-.17-.79.19-1.5.61-2.02,1.22-.3.44-.51.93-.65,1.44-.18.65-.31,1.31-.39,1.98-.93-.16-1.89.03-2.69.53Z" style="fill: rgb(37, 211, 251);"/><path class="cls-38_couple-2-27 targetColor" d="M265.62,115.25c-1.4.05-2.65.9-3.2,2.17-.62,1.58.16,3.44,1.34,4.69,1.36,1.42,3.19,2.31,5.16,2.52,1.09.07,2.17.03,3.25-.11.14,0,.28-.03.4-.1.11-.09.19-.2.24-.32.92-1.75,1.69-3.56,2.3-5.44.36-.87.49-1.82.38-2.76-.36-1.64-1.95-2.71-3.63-2.45-.64.13-1.22.46-1.65.95-.37.4-.56,1.66-.89,1.88-.63.48-2.61-1.07-3.72-1.02Z" style="fill: rgb(37, 211, 251);"/><path class="cls-38_couple-2-27 targetColor" d="M295.24,98.17c-.54-1.26-2.33-1.28-3.68-.99-1.15.14-2.21.68-3,1.52-.78,1.27-.62,2.91.41,4,1.03,1.05,2.38,1.73,3.84,1.95,1.43.29,2.91.36,4.34.68,1.27-1.87,2.26-3.91,2.96-6.05.35-.85.44-1.79.27-2.69-.21-.92-1.08-1.55-2.03-1.48-.35.09-.69.25-.98.47-1.04.66-2.17,1.48-2.33,2.68" style="fill: rgb(37, 211, 251);"/></g></svg>