<!--?xml version="1.0" standalone="no"?-->
              <svg id="sw-js-blob-svg" viewBox="0 0 100 100" xmlns="http://www.w3.org/2000/svg" version="1.1">
                    <defs> 
                        <linearGradient id="sw-gradient" x1="0" x2="1" y1="1" y2="0">
                            <stop id="stop1" stop-color="rgba(55, 146.665, 248, 1)" offset="0%"></stop>
                            <stop id="stop2" stop-color="rgba(35.757, 210.674, 207.711, 0)" offset="100%"></stop>
                        </linearGradient>
                    </defs>
                <path fill="url(#sw-gradient)" d="M9,-14.6C11.5,-10.6,13.2,-7.7,15.4,-4.3C17.5,-0.8,20.1,3.3,21.7,9.8C23.4,16.3,24.1,25.2,20.3,28.5C16.5,31.8,8.3,29.5,1,28C-6.2,26.6,-12.4,26.1,-18.5,23.6C-24.6,21,-30.7,16.5,-30.2,11.4C-29.7,6.3,-22.6,0.6,-18.9,-4.7C-15.2,-10,-14.8,-14.9,-12.2,-18.9C-9.6,-23,-4.8,-26.1,-0.8,-25C3.3,-23.9,6.5,-18.7,9,-14.6Z" width="100%" height="100%" transform="translate(50 50)" stroke-width="0" style="transition: all 0.3s ease 0s;" stroke="url(#sw-gradient)"></path>
              </svg>