<!--?xml version="1.0" standalone="no"?-->
              <svg id="sw-js-blob-svg" viewBox="0 0 100 100" xmlns="http://www.w3.org/2000/svg" version="1.1">
                    <defs> 
                        <linearGradient id="sw-gradient" x1="0" x2="1" y1="1" y2="0">
                            <stop id="stop1" stop-color="rgba(55, 146.665, 248, 1)" offset="0%"></stop>
                            <stop id="stop2" stop-color="rgba(35.757, 210.674, 207.711, 0)" offset="100%"></stop>
                        </linearGradient>
                    </defs>
                <path fill="url(#sw-gradient)" d="M25.1,-35C32.3,-29.2,38,-21.7,36.5,-14.6C35.1,-7.5,26.6,-0.8,21.3,4.3C16,9.3,13.9,12.8,10.9,14.6C7.9,16.4,3.9,16.5,-1.2,18.2C-6.3,19.8,-12.7,23,-16.1,21.3C-19.5,19.6,-20.1,13.2,-23.3,6.7C-26.6,0.3,-32.6,-6.1,-32.2,-11.4C-31.8,-16.7,-25,-20.8,-18.5,-26.9C-12.1,-33,-6.1,-41,1.4,-42.9C8.9,-44.9,17.8,-40.8,25.1,-35Z" width="100%" height="100%" transform="translate(50 50)" stroke-width="0" style="transition: all 0.3s ease 0s;" stroke="url(#sw-gradient)"></path>
              </svg>