<svg id="_0235_couple" xmlns="http://www.w3.org/2000/svg" xmlns:xlink="http://www.w3.org/1999/xlink" viewBox="0 0 500 500" data-imageid="couple-54" imageName="Couple" class="illustrations_image" style="width: 171px;"><defs><style>.cls-1_couple-54,.cls-2_couple-54,.cls-3_couple-54{fill:none;}.cls-1_couple-54,.cls-3_couple-54{stroke:#fff;stroke-linecap:round;stroke-miterlimit:10;stroke-width:1.52px;}.cls-4_couple-54{clip-path:url(#clippath);}.cls-2_couple-54,.cls-5_couple-54,.cls-6_couple-54,.cls-7_couple-54,.cls-8_couple-54,.cls-9_couple-54,.cls-10_couple-54,.cls-11_couple-54,.cls-12_couple-54,.cls-13_couple-54,.cls-14_couple-54,.cls-15_couple-54,.cls-16_couple-54,.cls-17_couple-54,.cls-18_couple-54,.cls-19_couple-54,.cls-20_couple-54,.cls-21_couple-54,.cls-22_couple-54,.cls-23_couple-54,.cls-24_couple-54,.cls-25_couple-54,.cls-26_couple-54,.cls-27_couple-54{stroke-width:0px;}.cls-5_couple-54{fill:url(#linear-gradient);}.cls-3_couple-54{stroke-dasharray:0 0 12.5 12.5;}.cls-6_couple-54{fill:url(#linear-gradient-11-couple-54);}.cls-7_couple-54{fill:url(#linear-gradient-12-couple-54);}.cls-8_couple-54{fill:url(#linear-gradient-13-couple-54);}.cls-9_couple-54{fill:url(#linear-gradient-10-couple-54);}.cls-10_couple-54{fill:url(#linear-gradient-17-couple-54);}.cls-11_couple-54{fill:url(#linear-gradient-16-couple-54);}.cls-12_couple-54{fill:url(#linear-gradient-15-couple-54);}.cls-13_couple-54{fill:url(#linear-gradient-18-couple-54);}.cls-14_couple-54{fill:url(#linear-gradient-14-couple-54);}.cls-15_couple-54{fill:url(#linear-gradient-4-couple-54);}.cls-16_couple-54{fill:url(#linear-gradient-2-couple-54);}.cls-17_couple-54{fill:url(#linear-gradient-3-couple-54);}.cls-18_couple-54{fill:url(#linear-gradient-8-couple-54);}.cls-19_couple-54{fill:url(#linear-gradient-9-couple-54);}.cls-20_couple-54{fill:url(#linear-gradient-7-couple-54);}.cls-21_couple-54{fill:url(#linear-gradient-5-couple-54);}.cls-22_couple-54{fill:url(#linear-gradient-6-couple-54);}.cls-23_couple-54{isolation:isolate;opacity:.24;}.cls-23_couple-54,.cls-27_couple-54{fill:#68e1fd;}.cls-24_couple-54{fill:#231f20;}.cls-25_couple-54{fill:#c14834;}.cls-26_couple-54{fill:#ffb4a3;}</style><clipPath id="clippath_couple-54"><path class="cls-2_couple-54" d="M360.06,121.79c-11.52-20.89-25.89-43.13-49.02-49.76-7.7-2.21-15.8-2.46-23.82-2.71l-135.45-4.11c-9.97-.31-20.19-.58-29.64,2.56-11.89,3.94-21.37,12.91-29.32,22.49-27.25,32.84-40.51,74.56-53.16,115.18-9.98,32.01-20.08,65.33-15.18,98.46,2.09,13.99,6.82,27.48,13.93,39.76,2.8,4.84,6.07,9.56,10.62,12.87,4.1,2.98,9.04,4.65,13.99,5.8,26.14,6.06,53.45-1.07,80.28,0,7.37.28,14.81,1.19,22.1.06s14.66-4.73,18.14-11.13c3.48-6.4,1.47-15.84-5.31-18.72-5.27,8.02-11.99,16.92-21.68,17.32-8.31.33-15.61-6.26-18.69-13.9-3.08-7.64-2.85-16.11-2.56-24.32,1.89-51.77,4.79-103.52,9.64-155.1.8-8.63,1.73-17.36,4.99-25.43,3.71-9.1,10.24-16.76,16.96-23.99,7.48-8.05,15.48-15.88,25.23-21.06,17.13-9.12,38.7-8.92,56.27-.62,17.56,8.31,30.96,24.23,37.31,42.4,4.09,11.72,5.39,24.2,6.32,36.56,4.28,56.8,1.55,113.82.07,170.73-.13,4.88-.16,10.07,2.44,14.2,2.12,3.38,5.69,5.52,9.22,7.46,14.91,8.03,31.22,13.23,48.07,15.33,3.31.4,6.73.69,9.92-.28,3.68-1.12,6.64-3.78,9.24-6.58,11.79-12.67,18.32-29.14,24.59-45.2,6.45-16.5,12.94-33.13,15.72-50.62,8.13-50.93-27.6-104.81-51.22-147.64Z"/></clipPath><linearGradient id="linear-gradient-couple-54" x1="694.31" y1="2637.84" x2="716.37" y2="2610.52" gradientTransform="translate(-514.04 2834.13) scale(1 -1)" gradientUnits="userSpaceOnUse"><stop offset="0" stop-color="#231f20" stop-opacity="0"/><stop offset="1" stop-color="#231f20"/></linearGradient><linearGradient id="linear-gradient-2-couple-54" x1="711.38" y1="2643.53" x2="707.08" y2="2650.34" xlink:href="#linear-gradient-couple-54"/><linearGradient id="linear-gradient-3-couple-54" x1="679.12" y1="2611.84" x2="724.55" y2="2550.27" xlink:href="#linear-gradient-couple-54"/><linearGradient id="linear-gradient-4-couple-54" x1="736.65" y1="2601.61" x2="694.39" y2="2636.72" xlink:href="#linear-gradient-couple-54"/><linearGradient id="linear-gradient-5-couple-54" x1="680.47" y1="2647.4" x2="717.46" y2="2647.4" xlink:href="#linear-gradient-couple-54"/><linearGradient id="linear-gradient-6-couple-54" x1="700.24" y1="2626.39" x2="705.77" y2="2626.54" xlink:href="#linear-gradient-couple-54"/><linearGradient id="linear-gradient-7-couple-54" x1="687.97" y1="2618.98" x2="696.05" y2="2628.59" xlink:href="#linear-gradient-couple-54"/><linearGradient id="linear-gradient-8-couple-54" x1="698.56" y1="2604.48" x2="722.37" y2="2565.19" xlink:href="#linear-gradient-couple-54"/><linearGradient id="linear-gradient-9-couple-54" x1="609.62" y1="2817.66" x2="524.87" y2="2807.49" gradientTransform="translate(-626.45 2992.4) rotate(4.66) scale(1 -1)" xlink:href="#linear-gradient-couple-54"/><linearGradient id="linear-gradient-10-couple-54" x1="682.18" y1="2640.87" x2="707.45" y2="2640.07" gradientTransform="translate(-471 2803.46) scale(1 -1)" xlink:href="#linear-gradient-couple-54"/><linearGradient id="linear-gradient-11-couple-54" x1="719.43" y1="2603.54" x2="750.95" y2="2627.48" xlink:href="#linear-gradient-couple-54"/><linearGradient id="linear-gradient-12-couple-54" x1="733.06" y1="2704.72" x2="737.83" y2="2766.68" gradientTransform="translate(-514.04 2834.13) scale(1 -1)" gradientUnits="userSpaceOnUse"><stop offset="0" stop-color="#fff" stop-opacity="0"/><stop offset=".95" stop-color="#fff"/></linearGradient><linearGradient id="linear-gradient-13-couple-54" x1="757.66" y1="2590.94" x2="861.53" y2="2671.55" xlink:href="#linear-gradient-couple-54"/><linearGradient id="linear-gradient-14-couple-54" x1="766.02" y1="2663.63" x2="777.06" y2="2629.89" xlink:href="#linear-gradient-couple-54"/><linearGradient id="linear-gradient-15-couple-54" x1="745.39" y1="2629.16" x2="776.64" y2="2624.95" xlink:href="#linear-gradient-couple-54"/><linearGradient id="linear-gradient-16-couple-54" x1="777.32" y1="2637.94" x2="828.56" y2="2622.38" xlink:href="#linear-gradient-couple-54"/><linearGradient id="linear-gradient-17-couple-54" x1="735.68" y1="2493.18" x2="852.49" y2="2611.58" xlink:href="#linear-gradient-couple-54"/><linearGradient id="linear-gradient-18-couple-54" x1="776.35" y1="2515.49" x2="789.63" y2="2515.49" xlink:href="#linear-gradient-couple-54"/></defs><g id="background_couple-54"><path class="cls-23_couple-54 targetColor" d="M416.8,274.87c-5.99,42.77-36.04,76.78-68.88,106.55-7.19,6.56-14.58,12.87-21.83,19.08-22.12,18.82-45.46,38.29-73.93,44.57-28.93,6.31-59.13-1.92-86.35-13.41-32.95-13.97-63.58-32.74-90.88-55.7-4.26-3.55-8.43-7.21-12.5-10.99-22.46-20.78-43.29-47.28-42.8-77.58.42-24.26,14.38-46.01,21.43-69.23,9.69-31.96,6.5-67.18,19.89-97.75,18.78-42.77,69.25-63.67,114.37-60.37,19.31,1.44,37.98,7.49,57.43,8.88,28.29,2,58.53-3.16,85.06,9.16,25.03,11.6,40.49,36.46,54.53,59.96,25.18,42.11,51.22,88.43,44.46,136.84Z" style="fill: rgb(104, 225, 253);"/><path class="cls-23_couple-54 targetColor" d="M348.83,377.56c-.28,1.29-.6,2.56-.91,3.86-7.19,6.56-14.58,12.87-21.83,19.08-22.12,18.82-45.46,38.29-73.93,44.57-28.93,6.31-59.13-1.92-86.35-13.41-32.95-13.97-63.58-32.74-90.88-55.7,1.15-.85,2.4-1.58,3.71-2.17,14.38-6.51,38.3-4.37,54.19-7.49,39.38-7.78,79.49-19.67,119.99-13.41,32.73,5.04,63,21.81,96.02,24.68Z" style="fill: rgb(104, 225, 253);"/><path class="cls-23_couple-54 targetColor" d="M143.44,372.59c-.99-.08-1.97.17-2.8.7-2,1.62,0,4.77,2.06,6.27,17.01,12.19,42.08,7.79,59.13,19.87,1.65,1.17,3.4,2.53,5.42,2.46,2.36-.09,4.11-2.07,6.21-3.16,3.08-1.58,6.8-1.1,10.19-.37,7.71,1.64,15.14,4.35,22.08,8.04,4.17,2.22,8.79,4.89,13.34,3.57,2.76-.79,4.87-2.93,7.14-4.67,5.74-4.39,12.89-6.43,19.53-9.32,7.4-3.21,14.25-7.53,20.31-12.8,2.47-2.15,5.01-5.27,3.84-8.31-.93-2.37-3.78-3.43-6.34-3.88-15.35-2.69-30.57,5.32-46.16,5.66-8.18.17-16.24-1.77-24.27-3.34-2.65-.52-5.41-1-8.05-.38s-5.11,2.65-5.38,5.31c-.1,1.03.08,2.21-.62,3s-1.73.79-2.7.73c-11.11-.4-21.57-5.24-32.57-6.9-13.35-2.02-26.85-2.85-40.35-2.48Z" style="fill: rgb(104, 225, 253);"/></g><g id="rain_couple-54"><g class="cls-4_couple-54"><line class="cls-1_couple-54" x1="106.47" y1="52.57" x2="104.72" y2="58.35"/><line class="cls-3_couple-54" x1="101.14" y1="70.25" x2="23.96" y2="326.28"/><line class="cls-1_couple-54" x1="22.17" y1="332.23" x2="20.42" y2="338.02"/><line class="cls-1_couple-54" x1="126.54" y1="54.97" x2="124.8" y2="60.76"/><line class="cls-3_couple-54" x1="121.21" y1="72.66" x2="44.04" y2="328.68"/><line class="cls-1_couple-54" x1="42.24" y1="334.64" x2="40.5" y2="340.42"/><line class="cls-1_couple-54" x1="132.14" y1="64.88" x2="130.4" y2="70.67"/><line class="cls-3_couple-54" x1="126.8" y1="82.58" x2="49.63" y2="338.59"/><line class="cls-1_couple-54" x1="47.83" y1="344.55" x2="46.09" y2="350.33"/><line class="cls-1_couple-54" x1="144.9" y1="56.1" x2="143.16" y2="61.88"/><line class="cls-3_couple-54" x1="139.57" y1="73.8" x2="62.39" y2="329.81"/><line class="cls-1_couple-54" x1="60.6" y1="335.77" x2="58.85" y2="341.55"/><line class="cls-1_couple-54" x1="163.25" y1="57.24" x2="161.51" y2="63.02"/><line class="cls-3_couple-54" x1="157.92" y1="74.93" x2="80.75" y2="330.95"/><line class="cls-1_couple-54" x1="78.96" y1="336.9" x2="77.21" y2="342.69"/><line class="cls-1_couple-54" x1="156.8" y1="54.26" x2="155.06" y2="60.05"/><line class="cls-3_couple-54" x1="151.47" y1="71.96" x2="74.3" y2="327.97"/><line class="cls-1_couple-54" x1="72.5" y1="333.93" x2="70.76" y2="339.71"/><line class="cls-1_couple-54" x1="181.61" y1="58.37" x2="179.87" y2="64.16"/><line class="cls-3_couple-54" x1="176.28" y1="76.06" x2="99.11" y2="332.08"/><line class="cls-1_couple-54" x1="97.31" y1="338.03" x2="95.57" y2="343.82"/><line class="cls-1_couple-54" x1="175.16" y1="51.57" x2="173.41" y2="57.36"/><line class="cls-3_couple-54" x1="169.83" y1="69.27" x2="92.65" y2="325.28"/><line class="cls-1_couple-54" x1="90.86" y1="331.24" x2="89.11" y2="337.02"/><line class="cls-1_couple-54" x1="199.97" y1="59.5" x2="198.22" y2="65.28"/><line class="cls-3_couple-54" x1="194.64" y1="77.2" x2="117.46" y2="333.21"/><line class="cls-1_couple-54" x1="115.67" y1="339.17" x2="113.92" y2="344.95"/><line class="cls-1_couple-54" x1="194.37" y1="46.34" x2="192.63" y2="52.12"/><line class="cls-3_couple-54" x1="189.04" y1="64.02" x2="111.87" y2="320.05"/><line class="cls-1_couple-54" x1="110.08" y1="326" x2="108.33" y2="331.78"/><line class="cls-1_couple-54" x1="218.32" y1="60.64" x2="216.58" y2="66.42"/><line class="cls-3_couple-54" x1="212.99" y1="78.33" x2="135.81" y2="334.35"/><line class="cls-1_couple-54" x1="134.02" y1="340.3" x2="132.28" y2="346.09"/><line class="cls-1_couple-54" x1="211.87" y1="55.96" x2="210.13" y2="61.75"/><line class="cls-3_couple-54" x1="206.53" y1="73.66" x2="129.37" y2="329.67"/><line class="cls-1_couple-54" x1="127.57" y1="335.63" x2="125.83" y2="341.41"/><line class="cls-1_couple-54" x1="236.68" y1="61.77" x2="234.94" y2="67.55"/><line class="cls-3_couple-54" x1="231.34" y1="79.46" x2="154.17" y2="335.48"/><line class="cls-1_couple-54" x1="152.38" y1="341.43" x2="150.63" y2="347.22"/><line class="cls-1_couple-54" x1="231.09" y1="58.79" x2="229.35" y2="64.57"/><line class="cls-3_couple-54" x1="225.75" y1="76.49" x2="148.58" y2="332.5"/><line class="cls-1_couple-54" x1="146.78" y1="338.46" x2="145.04" y2="344.24"/><line class="cls-1_couple-54" x1="255.03" y1="62.9" x2="253.29" y2="68.69"/><line class="cls-3_couple-54" x1="249.7" y1="80.59" x2="172.53" y2="336.61"/><line class="cls-1_couple-54" x1="170.74" y1="342.57" x2="168.99" y2="348.35"/><line class="cls-1_couple-54" x1="317.85" y1="68.42" x2="316.1" y2="74.21"/><line class="cls-3_couple-54" x1="312.52" y1="86.11" x2="235.34" y2="342.14"/><line class="cls-1_couple-54" x1="233.55" y1="348.09" x2="231.8" y2="353.87"/><line class="cls-1_couple-54" x1="273.39" y1="64.03" x2="271.65" y2="69.82"/><line class="cls-3_couple-54" x1="268.06" y1="81.73" x2="190.88" y2="337.74"/><line class="cls-1_couple-54" x1="189.09" y1="343.7" x2="187.35" y2="349.48"/><line class="cls-1_couple-54" x1="291.75" y1="65.17" x2="290.01" y2="70.95"/><line class="cls-3_couple-54" x1="286.41" y1="82.86" x2="209.24" y2="338.88"/><line class="cls-1_couple-54" x1="207.45" y1="344.83" x2="205.7" y2="350.62"/><line class="cls-1_couple-54" x1="310.1" y1="66.3" x2="308.36" y2="72.09"/><line class="cls-3_couple-54" x1="304.77" y1="83.99" x2="227.6" y2="340.01"/><line class="cls-1_couple-54" x1="225.81" y1="345.96" x2="224.06" y2="351.74"/><line class="cls-1_couple-54" x1="328.46" y1="67.43" x2="326.71" y2="73.21"/><line class="cls-3_couple-54" x1="323.13" y1="85.13" x2="245.95" y2="341.14"/><line class="cls-1_couple-54" x1="244.16" y1="347.1" x2="242.42" y2="352.88"/><line class="cls-1_couple-54" x1="336.63" y1="72.53" x2="334.89" y2="78.31"/><line class="cls-3_couple-54" x1="331.3" y1="90.22" x2="254.12" y2="346.24"/><line class="cls-1_couple-54" x1="252.33" y1="352.19" x2="250.59" y2="357.98"/><line class="cls-1_couple-54" x1="346.82" y1="68.57" x2="345.07" y2="74.35"/><line class="cls-3_couple-54" x1="341.48" y1="86.25" x2="264.31" y2="342.28"/><line class="cls-1_couple-54" x1="262.51" y1="348.23" x2="260.77" y2="354.02"/><line class="cls-1_couple-54" x1="354.13" y1="73.24" x2="352.39" y2="79.02"/><line class="cls-3_couple-54" x1="348.8" y1="90.93" x2="271.62" y2="346.95"/><line class="cls-1_couple-54" x1="269.83" y1="352.9" x2="268.08" y2="358.69"/><line class="cls-1_couple-54" x1="365.17" y1="69.69" x2="363.43" y2="75.48"/><line class="cls-3_couple-54" x1="359.84" y1="87.39" x2="282.66" y2="343.41"/><line class="cls-1_couple-54" x1="280.87" y1="349.36" x2="279.12" y2="355.14"/><line class="cls-1_couple-54" x1="383.52" y1="70.83" x2="381.78" y2="76.61"/><line class="cls-3_couple-54" x1="378.19" y1="88.52" x2="301.02" y2="344.54"/><line class="cls-1_couple-54" x1="299.23" y1="350.5" x2="297.49" y2="356.28"/><line class="cls-1_couple-54" x1="401.89" y1="71.96" x2="400.14" y2="77.75"/><line class="cls-3_couple-54" x1="396.55" y1="89.65" x2="319.38" y2="345.68"/><line class="cls-1_couple-54" x1="317.58" y1="351.63" x2="315.84" y2="357.41"/><line class="cls-1_couple-54" x1="420.24" y1="73.09" x2="418.5" y2="78.88"/><line class="cls-3_couple-54" x1="414.91" y1="90.79" x2="337.73" y2="346.81"/><line class="cls-1_couple-54" x1="335.93" y1="352.76" x2="334.19" y2="358.54"/><line class="cls-1_couple-54" x1="438.59" y1="74.23" x2="436.85" y2="80.01"/><line class="cls-3_couple-54" x1="433.26" y1="91.92" x2="356.09" y2="347.94"/><line class="cls-1_couple-54" x1="354.3" y1="353.89" x2="352.55" y2="359.68"/><line class="cls-1_couple-54" x1="456.95" y1="75.36" x2="455.2" y2="81.14"/><line class="cls-3_couple-54" x1="451.62" y1="93.05" x2="374.45" y2="349.07"/><line class="cls-1_couple-54" x1="372.65" y1="355.03" x2="370.91" y2="360.81"/><line class="cls-1_couple-54" x1="123.96" y1="33.59" x2="122.21" y2="39.38"/><line class="cls-3_couple-54" x1="118.63" y1="51.28" x2="41.46" y2="307.3"/><line class="cls-1_couple-54" x1="39.66" y1="313.25" x2="37.92" y2="319.04"/></g></g><g id="character_2_couple-54"><path class="cls-27_couple-54 targetColor" d="M209.75,209.39c-.43,8.17-2.23,16.28-1.8,24.46.22,3.94.94,7.94.8,11.92-.14,3.98-1.51,8.11-4.59,10.67-4.85,4-12.04,2.76-18.2,1.33-1.54-.36-3.2-.79-4.23-2-.84-1.15-1.32-2.53-1.37-3.94-.78-6.78-1.02-13.61-.74-20.43.09-3.09.22-6.19.37-9.26.06-1.58.14-3.16.26-4.62.72-9.66,2.63-18.31,8.79-26.48.8-1.04,1.69-2.37,2.71-3.61,0,0,0-.06.06-.09.34-.43.72-.84,1.09-1.24h0c.95-1.05,2.14-1.86,3.48-2.37.64-.26,1.34-.37,2.03-.34,4.68.17,7.7,5.77,9.19,9.47,2.12,5.21,2.52,10.99,2.17,16.54Z" style="fill: rgb(104, 225, 253);"/><path class="cls-24_couple-54" d="M175.27,183.87c-1.75,1.33-4,2.12-5.26,3.91-1.6,2.26-1.09,5.4.1,7.89.69,1.44,1.6,2.94,1.31,4.5-.29,1.56-1.85,2.75-2.94,4.04-3.13,3.69-2.64,9.2,1.1,12.29.85.71,1.84,1.25,2.89,1.59,3.2,1.06,6.82.19,9.72-1.53,2.9-1.72,5.23-4.24,7.49-6.71.85-.84,1.56-1.8,2.11-2.86,1.97-4.33-1.88-9.27-1.14-13.96.37-2.37,1.88-4.45,2.27-6.82.47-2.86-.8-5.76-2.55-8.06-2.03-2.63-6.86-6-10.05-3.01-2.53,2.34-1.96,6.39-5.06,8.73Z"/><path class="cls-5_couple-54" d="M192.92,186.1v.11c-.07.42-.18.83-.31,1.24l-.09.25c-.6,1.81-1.6,3.47-1.89,5.33-.71,4.73,3.14,9.64,1.14,13.98-.54,1.05-1.24,2.01-2.09,2.84-2.28,2.49-4.59,4.99-7.5,6.71-.62.38-1.27.7-1.94.96-.96.42-1.96.73-3,.9.78-6.13,1.14-12.31,1.06-18.48,0-2.37-.12-4.73.57-7.04.69-2.3,2.23-4.4,4.51-5.13,1-.24,2.02-.36,3.05-.34,1.54,0,3.72-.45,5.34,0,0,0,0-.06.06-.09.34-.43.72-.84,1.09-1.24Z"/><path class="cls-25_couple-54" d="M203.9,162.08c-.24,1.8.5,3.6,1.93,4.73.52.3.96.72,1.28,1.22.32.71,0,1.52-.18,2.29-.32,1.63.28,3.38-.26,4.95-.54,1.58-2.04,2.55-3.51,3.3-.46.19-.88.45-1.25.79-.29.36-.51.79-.62,1.24-.35,1.16-.5,2.36-.45,3.57.09.81.11,1.63.06,2.45-.06.83-.53,1.58-1.26,2-.62.26-1.33.23-1.93-.07-.61-.3-1.15-.71-1.6-1.21-2.54-2.85-4.11-6.41-4.5-10.18-.27-2.63-.33-5.29-.17-7.93-.01-1.57.16-3.14.52-4.67.61-2.46,2.31-4.51,4.63-5.59,2.38-1.02,5.15-.47,6.94,1.38"/><path class="cls-24_couple-54" d="M196.43,183.68c-.02.56-.12,1.11-.31,1.63-.59,1.38-2,2.24-3.51,2.14-.27,0-.54-.03-.8-.11.34-.43.72-.84,1.09-1.24h0c.96-1.08,2.17-1.91,3.53-2.42Z"/><path class="cls-16_couple-54" d="M196.43,183.68c-.02.56-.12,1.11-.31,1.63-.59,1.38-2,2.24-3.51,2.14-.27,0-.54-.03-.8-.11.34-.43.72-.84,1.09-1.24h0c.96-1.08,2.17-1.91,3.53-2.42Z"/><path class="cls-27_couple-54 targetColor" d="M196.75,230.39c-1.09.91-2.44,1.46-3.86,1.58-3.5.61-7.07.66-10.58.14-.93-.11-1.83-.35-2.68-.71-.4-.16-.78-.37-1.11-.65-2.52-1.94-2.17-5.72-1.72-8.84.18-1.15.34-2.37.46-3.49.78-6.13,1.14-12.31,1.06-18.48,0-2.37-.12-4.73.57-7.04.69-2.3,2.23-4.4,4.51-5.13,1-.24,2.02-.36,3.05-.34,1.54,0,8.45-.66,8.62-.53,1.53,1.44-.6,5.57-.8,7.46-.51,6.51-1.25,13.02-2.13,19.5,1.25.55,2.63.76,4,.62.37-.09.76-.03,1.09.17.18.22.27.5.26.79.2,2.96.4,5.89.6,8.82.19,2.16.22,4.58-1.32,6.14Z" style="fill: rgb(104, 225, 253);"/><path class="cls-27_couple-54 targetColor" d="M213.67,191.83c1.21,2.45,1.45,5.23,1.66,7.95.7,9.19,1.13,18.41,1.55,27.61.29,6.05.57,12.16-.57,18.14-.6,3.56-1.91,6.97-3.86,10.03-3.29-3.23-4.79-7.89-5.27-12.41-.48-4.52.06-9.14.26-13.72.26-7.43-.09-14.87-1.05-22.25-.8-6.8-3.52-14.67-3.2-21.43,4.16-.7,8.73,2.52,10.48,6.06Z" style="fill: rgb(104, 225, 253);"/><path class="cls-24_couple-54" d="M182.96,254.54c.28,16.03,1.4,32.03,3.35,47.94,2.32,18.87,4.29,38,7.71,56.71.94.79,2.05-.84,2.2-2.05,2.56-20.15,5.12-40.43,4-60.75-.25-4.35-.66-8.77.25-13.04,1.96,1.78,2.34,4.65,2.56,7.26,2.34,28.23-.89,56.63.32,84.93-.04.48.12.96.45,1.32.29.2.65.28,1,.24,1.62-.24,3-1.29,3.64-2.78.61-1.47.95-3.04,1.01-4.62,3.08-31.86,6.17-63.76,7.02-95.76.21-7.89.06-16.46-4.9-22.65-.86-1.25-2.14-2.15-3.61-2.53-1.01-.11-2.04-.02-3.02.27-6.81,1.57-15.14,3.99-21.96,5.52Z"/><path class="cls-24_couple-54" d="M185.9,220.81c1.09,0,2.17.2,3.2.57.82.38,1.55.91,2.15,1.58,3.05,3.16,4.17,7.67,4.9,11.98.8,4.56,1.23,9.17,1.69,13.77.26,1.41.17,2.86-.27,4.22-.71,1.49-2.03,2.61-3.63,3.08-1.58.46-3.23.67-4.87.63-5.29.09-10.57-.19-15.85-.51-2.78-.05-5.55-.46-8.22-1.23-1.34-.35-2.51-1.14-3.32-2.25-.36-.65-.59-1.35-.69-2.08-1.46-8.05,1.93-16.07,3.79-24.05.8-3.31,2.13-8.28,6.46-7.99,4.88.35,9.72,1.92,14.68,2.29Z"/><path class="cls-17_couple-54" d="M185.9,220.81c1.09,0,2.17.2,3.2.57.82.38,1.55.91,2.15,1.58,3.05,3.16,4.17,7.67,4.9,11.98.8,4.56,1.23,9.17,1.69,13.77.26,1.41.17,2.86-.27,4.22-.71,1.49-2.03,2.61-3.63,3.08-1.58.46-3.23.67-4.87.63-5.29.09-10.57-.19-15.85-.51-2.78-.05-5.55-.46-8.22-1.23-1.34-.35-2.51-1.14-3.32-2.25-.36-.65-.59-1.35-.69-2.08-1.46-8.05,1.93-16.07,3.79-24.05.8-3.31,2.13-8.28,6.46-7.99,4.88.35,9.72,1.92,14.68,2.29Z"/><path class="cls-27_couple-54 targetColor" d="M202.3,381.41c-.37,1.04-.52,2.14-.42,3.24-.02,3.47.2,6.93.64,10.37.13,1.38.54,2.72,1.21,3.94.68,1.23,1.92,2.05,3.32,2.21,1.43,0,2.76-.71,3.55-1.89.76-1.17,1.24-2.5,1.4-3.88.49-3.81.24-7.69-.74-11.41-.23-1.52-.91-2.93-1.96-4.07-1.77-1.63-6.05-.68-7,1.48Z" style="fill: rgb(104, 225, 253);"/><path class="cls-27_couple-54 targetColor" d="M190.46,373.59c-.34.97-.54,1.98-.58,3-.42,4.42-.8,9.18,1.53,13,.11.21.27.39.46.52.28.12.59.16.89.1l2.55-.21c.36,0,.72-.09,1.04-.27.21-.17.39-.39.52-.63,2.52-4.26,3.09-10.99,2.21-15.78-.86-4.68-7.13-3.38-8.62.26Z" style="fill: rgb(104, 225, 253);"/><path class="cls-25_couple-54" d="M192.97,351.11c-.23,8.06-.38,16.11-.44,24.16,1.41.05,3.11-.07,3.76-1.29.19-.41.3-.86.33-1.32.86-7.34.89-14.75.08-22.09-1.45,1.29-2.78,2.7-4,4.2"/><path class="cls-25_couple-54" d="M209.04,367.71c.1,0,.21.03.28.1.05.07.07.15.06.23.18,4.68,0,9.38-.53,14.03-.05,1.01-.39,1.98-.99,2.8-.65.68-1.53,1.1-2.47,1.2-.2.06-.42.06-.62,0-.18-.11-.32-.27-.41-.47-.67-1.44-1.04-2.99-1.09-4.57-.31-3.46-.44-6.93-.39-10.41,0-1.29-.36-2.71,1.21-2.9,1.64-.16,3.3-.17,4.95-.02Z"/><path class="cls-27_couple-54 targetColor" d="M207.05,241.58c-.44.89-.68,1.87-.71,2.86.15,1.15.65,2.22,1.45,3.07,2.04,2.36,4.35,4.48,6.88,6.31.22.21.5.36.8.43.54.05.98-.42,1.3-.86,3.51-4.91,3.44-11.39,3.2-17.36-.26-7.39-.52-14.79-.8-22.19-.26-7.46-.8-15.64-6.01-21.06-3.44-3.58-3.75,2.04-3.75,4.26,0,3.03.41,6.02.68,9.03.7,7.69,1.06,15.49,0,23.16-.51,4.22-1.53,8.37-3.04,12.35Z" style="fill: rgb(104, 225, 253);"/><path class="cls-27_couple-54 targetColor" d="M207.05,241.58c-.44.89-.68,1.87-.71,2.86.15,1.15.65,2.22,1.45,3.07,2.04,2.36,4.35,4.48,6.88,6.31.22.21.5.36.8.43.54.05.98-.42,1.3-.86,3.51-4.91,3.44-11.39,3.2-17.36-.26-7.39-.52-14.79-.8-22.19-.26-7.46-.8-15.64-6.01-21.06-3.44-3.58-3.75,2.04-3.75,4.26,0,3.03.41,6.02.68,9.03.7,7.69,1.06,15.49,0,23.16-.51,4.22-1.53,8.37-3.04,12.35Z" style="fill: rgb(104, 225, 253);"/><path class="cls-15_couple-54" d="M209.83,247.52s3.08-5.59,2.6-11.52c-.47-5.93-.26-15.86-.26-15.86l.26-21.68s5.35,29.62,5.35,34.9-3.63,16.28-3.63,16.28l-4.33-2.12Z"/><path class="cls-25_couple-54" d="M208.36,253.71c.78,1.9,1.69,3.75,2.74,5.52.08.16.21.3.36.39.38.17.8-.2.99-.53,1.81-2.72,1.92-6.19,1.72-9.47,0-.37-.07-.73-.19-1.07-.73-1.68-3.16-3.03-4.14-1.05-.98,1.98-2.33,4.09-1.48,6.2Z"/><path class="cls-25_couple-54" d="M218.12,201.4c.38-.03.76.03,1.12.17.36.18.66.45.88.79,1.28,1.89,1.14,4.35.8,6.6-.05.71-.26,1.41-.61,2.04-.73.9-1.76,1.5-2.91,1.7-2.21.6-4.48.93-6.77.98-.3.03-.6-.02-.87-.15-1.75-1.06-.8-6.97.14-8.54,1.45-2.46,5.56-3.58,8.22-3.58Z"/><path class="cls-24_couple-54" d="M203.31,160.17c-.28,1.29-.95,2.47-1.91,3.38-.85.79-1.85,1.44-2.8,2.17-.74.45-1.22,1.21-1.32,2.06.13.6.31,1.18.54,1.74.29,1.24-.54,2.42-1.4,3.35-.6.53-1.08,1.18-1.4,1.92-.51,1.52.63,3.05,1.09,4.56.3,1.19.41,2.41.34,3.64v.68c-1.33.5-2.52,1.32-3.48,2.37l-.8.89s-4.17.43-5.71.47c-1.03-.02-2.05.1-3.05.34-2.28.73-3.85,2.87-4.51,5.13s-.6,4.67-.57,7.04c.07,6.18-.28,12.35-1.06,18.48-1.6.28-3.24.17-4.79-.31-4.64-1.52-7.15-6.46-5.61-11.04.35-1.04.9-2.01,1.61-2.85,1.09-1.29,2.63-2.37,2.94-4.02.31-1.66-.63-3.08-1.31-4.51-1.2-2.51-1.72-5.63-.12-7.89,1.25-1.8,3.52-2.59,5.28-3.94,2.68-2.03,2.63-5.36,4.19-7.72-.52-.95-.69-2.04-.49-3.1.32-1.12,1.25-1.91,1.94-2.84,2.23-3.01,1.54-7.47,3.88-10.4,1.32-1.41,3.01-2.45,4.87-2.99,2.64-.93,5.4-1.51,8.19-1.74,1.89-.17,3.77-.28,4.79,1.33.69,1.15.91,2.52.63,3.83Z"/><path class="cls-21_couple-54" d="M203.31,160.17c-.28,1.29-.95,2.47-1.91,3.38-.85.79-1.85,1.44-2.8,2.17-.74.45-1.22,1.21-1.32,2.06.13.6.31,1.18.54,1.74.29,1.24-.54,2.42-1.4,3.35-.6.53-1.08,1.18-1.4,1.92-.51,1.52.63,3.05,1.09,4.56.3,1.19.41,2.41.34,3.64v.68c-1.33.5-2.52,1.32-3.48,2.37l-.8.89s-4.17.43-5.71.47c-1.03-.02-2.05.1-3.05.34-2.28.73-3.85,2.87-4.51,5.13s-.6,4.67-.57,7.04c.07,6.18-.28,12.35-1.06,18.48-1.6.28-3.24.17-4.79-.31-4.64-1.52-7.15-6.46-5.61-11.04.35-1.04.9-2.01,1.61-2.85,1.09-1.29,2.63-2.37,2.94-4.02.31-1.66-.63-3.08-1.31-4.51-1.2-2.51-1.72-5.63-.12-7.89,1.25-1.8,3.52-2.59,5.28-3.94,2.68-2.03,2.63-5.36,4.19-7.72-.52-.95-.69-2.04-.49-3.1.32-1.12,1.25-1.91,1.94-2.84,2.23-3.01,1.54-7.47,3.88-10.4,1.32-1.41,3.01-2.45,4.87-2.99,2.64-.93,5.4-1.51,8.19-1.74,1.89-.17,3.77-.28,4.79,1.33.69,1.15.91,2.52.63,3.83Z"/><path class="cls-24_couple-54" d="M185.53,228.5c1.68.07,2.3-2.14,2.4-3.79.37-9.77.74-19.63-.8-29.29-.42-2.68-.93-6.26-2.87-8.27-.38-.46-2.77.92-2.77.92.58.21,2.72,2.07,3.2,5.96.52,3.76.85,7.54.98,11.33.12,7.73-.56,15.45-.14,23.15Z"/><path class="cls-22_couple-54" d="M185.53,228.5c1.68.07,2.3-2.14,2.4-3.79.37-9.77.74-19.63-.8-29.29-.42-2.68-.93-6.26-2.87-8.27-.38-.46-2.77.92-2.77.92.58.21,2.72,2.07,3.2,5.96.52,3.76.85,7.54.98,11.33.12,7.73-.56,15.45-.14,23.15Z"/><path class="cls-24_couple-54" d="M173.07,222.92l5.23-24,.06,9.32-3.68,17.06s-2.48,1.65-1.61-2.38Z"/><path class="cls-20_couple-54" d="M173.07,222.92l5.23-24,.06,9.32-3.68,17.06s-2.48,1.65-1.61-2.38Z"/><path class="cls-18_couple-54" d="M187.66,249.32c-.22.91-.12,1.86.26,2.71.43.61,1.04,1.07,1.75,1.32,1.84.79,4.27,1.06,5.64-.4,1.16-1.23,1.06-3.16.9-4.8l-.93-9.55c-.23-2.98-.61-5.95-1.15-8.89-.87-4.33-2.05-1.84-2.8.99-1.62,6.13-2.85,12.35-3.68,18.63Z"/><path class="cls-19_couple-54" d="M183.74,227.65c2.05.13,4.1.22,6.15.28,1.42,0,3.39-.54,3.16-1.92,2.81,8.36,3.23,17.31,1.23,25.89,2.27.58,4.6-.68,5.33-2.87.22-.99.27-2,.14-3.01-.43-6.09-.57-12.19-.41-18.31-.04-.54.07-1.09.3-1.58.28-.41.66-.74,1.11-.97,2.26-1.31,4.95-1.76,7.19-3.06,2.24-1.3,4.11-4.08,2.99-6.43-6.57,3.16-14.2,3.06-21.5,2.77-2.72-.11-9.12-.79-10.46,2.42-1.37,3.35,1.64,6.58,4.77,6.79Z"/><path class="cls-27_couple-54 targetColor" d="M204.69,221.08c1.24-.51,2.51-1.28,2.92-2.54.31-.93,3.35-3.94,3.06-4.85-.65-2.09,1.07-6.37-.06-8.25-.21-.44-.56-.8-.99-1.03-.39-.16-6.73,4.11-7.15,4.17l-14.13,2.07c-2.87.42-6.76.13-8.06,3.24-.88,2.07-4,5.08-2.64,6.79,2.16,2.69,9.47,3.23,12.6,3.32,4.98.13,9.92-.87,14.45-2.93Z" style="fill: rgb(104, 225, 253);"/></g><g id="umbrella_couple-54"><rect class="cls-27_couple-54 targetColor" x="215.48" y="115.32" width="2.43" height="94.9" style="fill: rgb(104, 225, 253);"/><rect class="cls-9_couple-54" x="215.48" y="115.32" width="2.43" height="94.9"/><path class="cls-27_couple-54 targetColor" d="M214.55,223.74c-.8.59-1.85.57-2.76.92-1.26.51-2.12,1.69-2.2,3.03-.03.5.09.99.35,1.41.49.62,1.25.98,2.05.97,1.4,0,2.74-.57,3.71-1.58.93-1.02,1.64-2.23,2.08-3.53.75-2.04,1.12-4.19,1.12-6.35,0-2.22-2.4-3.54-3.2-1.14-.7,1.9.81,4.72-1.15,6.26Z" style="fill: rgb(104, 225, 253);"/><path class="cls-6_couple-54" d="M214.55,223.74c-.8.59-1.85.57-2.76.92-1.26.51-2.12,1.69-2.2,3.03-.03.5.09.99.35,1.41.49.62,1.25.98,2.05.97,1.4,0,2.74-.57,3.71-1.58.93-1.02,1.64-2.23,2.08-3.53.75-2.04,1.12-4.19,1.12-6.35,0-2.22-2.4-3.54-3.2-1.14-.7,1.9.81,4.72-1.15,6.26Z"/><path class="cls-27_couple-54 targetColor" d="M233.56,85.97c40.53,4.99,53.83,38.91,53.83,38.91,0,0-30.26-7.84-43.15,6.86,0,0-23.04-16.99-46.87.65,0,0-27.58-12.74-46.34-3.27.05-.02,23.61-50.34,82.53-43.15Z" style="fill: rgb(104, 225, 253);"/><path class="cls-7_couple-54" d="M233.56,85.97c40.53,4.99,53.83,38.91,53.83,38.91,0,0-30.26-7.84-43.15,6.86,0,0-23.04-16.99-46.87.65,0,0-27.58-12.74-46.34-3.27.05-.02,23.61-50.34,82.53-43.15Z"/></g><g id="character_1_couple-54"><path class="cls-26_couple-54" d="M230.36,262.31c1.93-3.01,2.29-6.75,2.09-10.26-.21-3.51-.94-7.1-.96-10.63,0-4.62,1.13-9.14,1.35-13.74.14-2.61.16-3.39-2.55-3.76-1.41-.2-3.13-.37-4.37.5-2.69,1.89-1.65,7.15-1.52,9.88.22,4.56.79,9.1,1.71,13.57.53,2.51,1.15,4.99,1.85,7.44.28.91,2.8,6.38,2.41,7Z"/><path class="cls-26_couple-54" d="M230.36,262.31c1.93-3.01,2.29-6.75,2.09-10.26-.21-3.51-.94-7.1-.96-10.63,0-4.62,1.13-9.14,1.35-13.74.14-2.61.16-3.39-2.55-3.76-1.41-.2-3.13-.37-4.37.5-2.69,1.89-1.65,7.15-1.52,9.88.22,4.56.79,9.1,1.71,13.57.53,2.51,1.15,4.99,1.85,7.44.28.91,2.8,6.38,2.41,7Z"/><path class="cls-26_couple-54" d="M237.39,155.43c.16,1.93-.06,3.88-.63,5.73-.09.22-.13.46-.1.7.1.43.55.65.94.86,1.11.59,2.02,1.49,2.63,2.59.59,1.08.89,2.37,1.84,3.16,1.35,1.15,3.47.79,4.99-.11.54,1.2.28,2.61-.67,3.53-.93.89-1.98,1.65-3.12,2.27-.34.23-.71.53-.73.93.01.29.12.57.3.79,1.24,2.01,3.16,3.54,5.42,4.31,3.2.9,6.55-.5,9.59-1.89,1.04-.38,1.96-1.03,2.64-1.9.68-1.06.6-2.41.5-3.66,0-.29-.09-.57-.28-.79-.22-.15-.47-.24-.74-.27-1.3-.32-2.02-1.67-2.57-2.89-.94-1.72-1.31-3.68-1.08-5.62.16-3.81.34-7.81-1.41-11.21-.43-1.01-1.2-1.85-2.17-2.37-.77-.28-1.58-.41-2.4-.37l-4.88-.12c-1.89,0-4,0-5.44,1.18-.93.9-1.62,2.02-2,3.25-.13.29-.27.57-.43.84-.16.33-.23.69-.2,1.06Z"/><path class="cls-24_couple-54" d="M242.51,140.32c-2.44.21-4.13,2.41-6.16,3.76-.91.61-1.93,1.05-2.81,1.69-.93.59-1.6,1.51-1.85,2.57-.22,1.31.52,2.58,1.3,3.66,1.13,1.58,2.68,3.11,4.61,3.07,2.19-.05,3.76-2.11,5.81-2.89.57-.25,1.2-.29,1.8-.13.36.15.7.34,1.01.57,1.16.72,2.53,1.04,3.9.9l1.81,5.58.8-2.11c.09-.24.25-.53.51-.51.13.03.25.1.34.21.95,1.14.79,2.83-.37,3.78-.05.04-.11.08-.16.12.93.18,1.71.79,2.09,1.64.37.84.61,1.73.69,2.63,1.08-.59,1.13-2.06,1.41-3.25.26-1.17.84-2.25,1.69-3.12.21-.19.39-.41.54-.65.17-.35.23-.73.19-1.11-.09-1.43-.85-2.73-1.21-4.13-.3-1.59-.38-3.21-.26-4.82.07-.99-.06-1.99-.36-2.94-.56-1.18-1.38-2.23-2.4-3.07-.63-.74-1.46-1.28-2.4-1.58-.78-.09-1.57-.11-2.35-.06-1.28-.2-2.54-.55-3.74-1.04-1.24-.36-2.72-.43-3.7.41"/><path class="cls-27_couple-54 targetColor" d="M277.84,215.23c-.46,1.32-1,2.59-1.45,3.94-.35.94-.63,1.9-.85,2.87-.5,2.56-.7,5.17-.58,7.78v16.12c.06,1.55-.11,3.09-.49,4.59-.26,1.11-.85,2.11-1.71,2.87-1.43,1.24-3.43,1.52-5.34,1.72-10.9,1.18-21.88,1.55-32.84,1.1-.45,0-.9-.08-1.32-.25-.94-.48-1.14-1.74-1.11-2.79.02-2.54.47-5.06,1.31-7.46.72-2.06,1.74-4.11,1.52-6.26-.38-3.38-3.72-6.31-2.77-9.58-2.53-.11-5.04-.57-7.45-1.35-.44-.1-.84-.32-1.17-.62-.39-.67-.48-1.46-.26-2.2,1.77-10.33,2.35-38.14,8.15-46.39,2.65-3.77,12.9-6.97,13.93-7.42h.08c.34-.14.6-.25.72-.28,1.08-.2-.97,1.78-.6,2.37,3.08,4.96,8.47,1.33,12.52,1.02,2.48-.17,2.14-3.3.43-4.06.97.26,2,.48,3.03.73,3.33.79,6.87,1.66,10.07,2.45,1.62.27,3.16.86,4.54,1.74,2.56,1.95,3.14,5.47,3.48,8.62,1.11,10.26,1.6,20.94-1.85,30.74Z" style="fill: rgb(104, 225, 253);"/><path class="cls-8_couple-54" d="M275.53,222.02c-.5,2.56-.7,5.17-.58,7.78v16.12c-.05,1.84-.32,3.68-.8,5.46-1.6,1.25-3.2,1.1-5.16.91-2.63-.28-5.06-2.51-5.03-5.1.09-.99.32-1.97.69-2.9,2.18-6.43,3.26-13.17,3.2-19.95-4.79-.56-9.67-1.13-14.49-1.72-4.2-.58-8.43-.87-12.67-.87-5.07.13-6.39.9-4.79-4.43,13.42-1.78,27.22,4.34,40.44,1.83-.33.94-.6,1.9-.8,2.87Z"/><path class="cls-14_couple-54" d="M261.17,175.05c-1.45.93-3.73,1.47-5.96,2.65-2.23,1.18-7.88,1.52-9.01.2s-2.83-2.79-2.03-5.41l1.29-.62h.08c.34-.14.6-.25.72-.28,1.08-.2-.97,1.78-.6,2.37,3.08,4.96,8.47,1.33,12.52,1.02,2.48-.17,2.14-3.3.43-4.06l2.96.59.06.14c.2.51.85,2.6-.46,3.42Z"/><path class="cls-12_couple-54" d="M232.84,227.64s5.59-16.49,4.24-23.1c-1.35-6.61-.27-24.33-.27-24.33,0,0-9.37,9.25-9.64,11.37-.26,2.11-3.54,36.29-3.54,36.29,0,0,8.18,5.43,9.2-.23Z"/><path class="cls-24_couple-54" d="M270.62,306.15c-.94,4.28-1.54,8.68-2.74,12.87-.56,1.72-1.02,3.47-1.37,5.24-.48,3.1,0,6.26.26,9.38.6,6.99.26,14.03-.08,21.02-.38,7.35-.72,14.67-1.09,22-.14,3.07-.37,6.31-2.17,8.79-.3.41-.64.79-1.03,1.13-2.03,1.69-5.14,2.22-6.99.45-.96-1.01-1.58-2.29-1.77-3.66-.61-3.25-.88-6.56-.8-9.86-.09-29.92.46-58.69.26-88.63,0-3.49-.6-8.51.26-11.04-.31.48-.6.99-.85,1.47-5.04,8.5-8.23,17.94-9.39,27.72-.49,4.82-.72,9.66-.69,14.51-.2,13.52-.39,27.05-.57,40.57,0,2.22-.06,4.54-1.09,6.53-.77,1.63-2.31,2.79-4.11,3.1-.46.06-.93.03-1.37-.09-3.08-.73-3.88-4.62-4.07-7.75-2.05-31.41-4.08-62.94-1.6-94.3.46-6.08,1.54-15.69,6.96-12.9,7.02,3.57,18.98.9,26.82.06.13,0,.27-.02.4-.06,1.52-.3,3.01-.73,4.46-1.27,1.22-.46,2.51-.69,3.82-.68.02-.02.06-.02.09,0,.54.02,1.06.15,1.54.39.2.09.37.17.51.25,3.59,2.17-.61,40.9-3.6,54.74Z"/><path class="cls-27_couple-54 targetColor" d="M254.6,399.52c.15,4.73,1.6,9.76,5.52,12.48.16.12.34.21.54.24.29,0,.58-.1.8-.29,2.52-1.86,2.83-5.4,2.92-8.5.07-2.5.14-5.09-.8-7.42-.34-.87-.8-1.69-1.07-2.58-.23-.97-.33-1.96-.3-2.95l-.06-6.16c0,.12-5.15.38-5.59.52-1.47.43-1.44,1.18-1.47,2.56-.11,4.02-.6,8.05-.5,12.09Z" style="fill: rgb(104, 225, 253);"/><path class="cls-27_couple-54 targetColor" d="M232.78,371.02c-.09,1.01-.32,2-.42,3.01-.15,2.08.06,4.16.61,6.17.26,1.27.72,2.5,1.37,3.62.67,1.13,1.75,1.97,3.03,2.33.48.13.98.13,1.46,0,.57-.21,1.05-.59,1.39-1.08,1.03-1.44,1.05-3.34,1.03-5.1.03-1.85-.1-3.7-.41-5.52-.18-.95-.46-1.9-.58-2.87-.28-2.37.43-4.95-.55-7.16-1.22.35-2.48.53-3.75.54-.87,0-2.01-.28-2.76.3-1.45,1.11-.28,4.23-.42,5.77Z" style="fill: rgb(104, 225, 253);"/><path class="cls-26_couple-54" d="M231.22,210.17c-1.85.19-3.71.04-5.51-.43-1.21-.54-2.45-1.02-3.71-1.44-.29-.09-.6-.06-.86.07-.28.18-.36.54-.53.79-.5.88-1.69,1.06-2.71,1.03s-2.13-.17-2.97.4c-1.44.96-1.08,3.16-.55,4.73l.8,2.41c.13.52.37,1,.7,1.41.45.4,1,.68,1.6.79,2.68.77,5.5.98,8.27.6.94-.07,1.84-.38,2.61-.92.38-.4.81-.76,1.26-1.07.52-.22,1.08-.31,1.65-.26l9.05.07c4.08-.06,8.17.16,12.22.66,6.03.89,11.99,3.06,18.07,2.33.99-.06,1.95-.38,2.78-.92.94-.84,1.61-1.94,1.93-3.16.37-.87.57-1.81.59-2.75-.08-2.37-2.4-4.59-4.51-5.52-2.26-.99-5.39-.32-7.77-.21l-20.84.84-11.57.55Z"/><path class="cls-11_couple-54" d="M266.89,203.34l1.4-6.07c.22-.79.34-1.61.36-2.43-.07-.83-.19-1.66-.38-2.48-.35-3,.09-6.03,1.27-8.81-1.68,2.09-3.04,4.41-4.04,6.89-.97,2.8-.99,5.82-1.65,8.68-.87,3.81-2.81,7.3-5.59,10.07.22-.21,2.76.12,3.2.09.9-.06,2.5,0,3.26-.54,1.4-.95,1.82-3.88,2.17-5.4Z"/><path class="cls-10_couple-54" d="M253.18,273.8c-.26.48-.48.99-.68,1.47-5.04,8.5-8.23,17.94-9.39,27.72-.49,4.82-.72,9.66-.69,14.51-.2,13.52-.39,27.05-.57,40.57,0,2.22-.06,4.54-1.09,6.53-.77,1.63-2.31,2.79-4.11,3.1-.54-.48,1.6-2.18,1.29-2.79-2.26-4.09-5.96-62.27,6.02-89.44,1.94-4.4,4.39-2.09,9.2-1.67Z"/><path class="cls-13_couple-54" d="M270.62,306.15c-.94,4.28-1.54,8.68-2.74,12.87-.56,1.72-1.02,3.47-1.37,5.24-.48,3.1,0,6.26.26,9.38.6,6.99.26,14.03-.08,21.02-.38,7.35-.72,14.67-1.09,22-.14,3.07-.37,6.31-2.17,8.79-.3.41-.64.79-1.03,1.13.37-3.46.74-6.96,1.11-10.45.89-8.48,1.8-16.99,1.49-25.5-.4-11.83-3.14-23.61-2.63-35.45.46-10.76,3.57-21.21,5.68-31.75,1.51-7.61-2.91-24.8-4.28-30.77,1.52-.3,3.01-.73,4.46-1.27,1.22-.46,2.51-.69,3.82-.68.02-.02.06-.02.09,0,.52.1,1.04.23,1.54.39.2.09.37.17.51.25,3.62,2.2-.58,40.94-3.56,54.77Z"/></g></svg>